<?xml version="1.0" encoding="UTF-8" standalone="no"?>
<!DOCTYPE svg PUBLIC "-//W3C//DTD SVG 1.1//EN"
 "http://www.w3.org/Graphics/SVG/1.1/DTD/svg11.dtd">
<!-- Generated by graphviz version 2.38.0 (20140413.2041)
 -->
<!-- Title: G Pages: 1 -->
<svg width="1381pt" height="1869pt"
 viewBox="0.00 0.00 1380.98 1869.31" xmlns="http://www.w3.org/2000/svg" xmlns:xlink="http://www.w3.org/1999/xlink">
<g id="graph0" class="graph" transform="scale(1 1) rotate(0) translate(21.6 1847.71)">
<title>G</title>
<polygon fill="#111111" stroke="none" points="-21.6,21.6 -21.6,-1847.71 1359.38,-1847.71 1359.38,21.6 -21.6,21.6"/>
<!-- about.js -->
<g id="node1" class="node"><title>about.js</title>
<path fill="none" stroke="#c6c5fe" d="M419.816,-1124.46C419.816,-1124.46 370.879,-1124.46 370.879,-1124.46 366.846,-1124.46 362.813,-1120.43 362.813,-1116.4 362.813,-1116.4 362.813,-1108.33 362.813,-1108.33 362.813,-1104.3 366.846,-1100.26 370.879,-1100.26 370.879,-1100.26 419.816,-1100.26 419.816,-1100.26 423.849,-1100.26 427.882,-1104.3 427.882,-1108.33 427.882,-1108.33 427.882,-1116.4 427.882,-1116.4 427.882,-1120.43 423.849,-1124.46 419.816,-1124.46"/>
<text text-anchor="middle" x="395.348" y="-1109.21" font-family="Arial" font-size="14.00" fill="#c6c5fe">about.js</text>
</g>
<!-- credentials.js -->
<g id="node2" class="node"><title>credentials.js</title>
<path fill="none" stroke="#cfffac" d="M1329.57,-1123.46C1329.57,-1123.46 1248.29,-1123.46 1248.29,-1123.46 1244.26,-1123.46 1240.23,-1119.43 1240.23,-1115.4 1240.23,-1115.4 1240.23,-1107.33 1240.23,-1107.33 1240.23,-1103.3 1244.26,-1099.26 1248.29,-1099.26 1248.29,-1099.26 1329.57,-1099.26 1329.57,-1099.26 1333.6,-1099.26 1337.63,-1103.3 1337.63,-1107.33 1337.63,-1107.33 1337.63,-1115.4 1337.63,-1115.4 1337.63,-1119.43 1333.6,-1123.46 1329.57,-1123.46"/>
<text text-anchor="middle" x="1288.93" y="-1108.21" font-family="Arial" font-size="14.00" fill="#cfffac">credentials.js</text>
</g>
<!-- about.js&#45;&gt;credentials.js -->
<g id="edge1" class="edge"><title>about.js&#45;&gt;credentials.js</title>
<path fill="none" stroke="#757575" d="M396.956,-1124.69C400.424,-1190.68 419.532,-1501.86 474.744,-1577.36 572.16,-1710.58 1079.64,-1825.77 1204.08,-1717.36 1249.18,-1678.07 1279.84,-1238.6 1286.55,-1133.74"/>
<polygon fill="#757575" stroke="#757575" points="1290.05,-1133.84 1287.18,-1123.64 1283.06,-1133.4 1290.05,-1133.84"/>
</g>
<!-- header.js -->
<g id="node3" class="node"><title>header.js</title>
<path fill="none" stroke="#c6c5fe" d="M898.004,-1084.46C898.004,-1084.46 841.495,-1084.46 841.495,-1084.46 837.462,-1084.46 833.429,-1080.43 833.429,-1076.4 833.429,-1076.4 833.429,-1068.33 833.429,-1068.33 833.429,-1064.3 837.462,-1060.26 841.495,-1060.26 841.495,-1060.26 898.004,-1060.26 898.004,-1060.26 902.037,-1060.26 906.07,-1064.3 906.07,-1068.33 906.07,-1068.33 906.07,-1076.4 906.07,-1076.4 906.07,-1080.43 902.037,-1084.46 898.004,-1084.46"/>
<text text-anchor="middle" x="869.75" y="-1069.21" font-family="Arial" font-size="14.00" fill="#c6c5fe">header.js</text>
</g>
<!-- about.js&#45;&gt;header.js -->
<g id="edge2" class="edge"><title>about.js&#45;&gt;header.js</title>
<path fill="none" stroke="#757575" d="M427.888,-1105.91C442.144,-1103.2 459.236,-1100.25 474.744,-1098.36 600.246,-1083.06 749.413,-1076.31 823.01,-1073.74"/>
<polygon fill="#757575" stroke="#757575" points="823.433,-1077.22 833.308,-1073.39 823.195,-1070.23 823.433,-1077.22"/>
</g>
<!-- nav.js -->
<g id="node4" class="node"><title>nav.js</title>
<path fill="none" stroke="#c6c5fe" d="M888.684,-1202.46C888.684,-1202.46 850.815,-1202.46 850.815,-1202.46 846.782,-1202.46 842.75,-1198.43 842.75,-1194.4 842.75,-1194.4 842.75,-1186.33 842.75,-1186.33 842.75,-1182.3 846.782,-1178.26 850.815,-1178.26 850.815,-1178.26 888.684,-1178.26 888.684,-1178.26 892.717,-1178.26 896.75,-1182.3 896.75,-1186.33 896.75,-1186.33 896.75,-1194.4 896.75,-1194.4 896.75,-1198.43 892.717,-1202.46 888.684,-1202.46"/>
<text text-anchor="middle" x="869.75" y="-1187.21" font-family="Arial" font-size="14.00" fill="#c6c5fe">nav.js</text>
</g>
<!-- about.js&#45;&gt;nav.js -->
<g id="edge3" class="edge"><title>about.js&#45;&gt;nav.js</title>
<path fill="none" stroke="#757575" d="M397.478,-1124.48C401.285,-1157.47 416.863,-1248.96 474.744,-1286.36 562.922,-1343.35 622.109,-1342.28 710.971,-1286.36 742.265,-1266.67 717.469,-1233.65 746.971,-1211.36 771.193,-1193.06 805.845,-1188.58 831.996,-1188.23"/>
<polygon fill="#757575" stroke="#757575" points="832.249,-1191.73 842.271,-1188.29 832.294,-1184.73 832.249,-1191.73"/>
</g>
<!-- request.js -->
<g id="node5" class="node"><title>request.js</title>
<path fill="none" stroke="#c6c5fe" d="M1146.43,-1084.46C1146.43,-1084.46 1086.17,-1084.46 1086.17,-1084.46 1082.14,-1084.46 1078.11,-1080.43 1078.11,-1076.4 1078.11,-1076.4 1078.11,-1068.33 1078.11,-1068.33 1078.11,-1064.3 1082.14,-1060.26 1086.17,-1060.26 1086.17,-1060.26 1146.43,-1060.26 1146.43,-1060.26 1150.47,-1060.26 1154.5,-1064.3 1154.5,-1068.33 1154.5,-1068.33 1154.5,-1076.4 1154.5,-1076.4 1154.5,-1080.43 1150.47,-1084.46 1146.43,-1084.46"/>
<text text-anchor="middle" x="1116.3" y="-1069.21" font-family="Arial" font-size="14.00" fill="#c6c5fe">request.js</text>
</g>
<!-- about.js&#45;&gt;request.js -->
<g id="edge4" class="edge"><title>about.js&#45;&gt;request.js</title>
<path fill="none" stroke="#757575" d="M428.119,-1112.88C517.342,-1114.02 777.706,-1115.05 992.528,-1093.36 1017.53,-1090.84 1045.13,-1086.28 1067.82,-1082.05"/>
<polygon fill="#757575" stroke="#757575" points="1068.7,-1085.45 1077.87,-1080.14 1067.39,-1078.57 1068.7,-1085.45"/>
</g>
<!-- utils.js -->
<g id="node6" class="node"><title>utils.js</title>
<path fill="none" stroke="#cfffac" d="M1135.63,-442.462C1135.63,-442.462 1096.97,-442.462 1096.97,-442.462 1092.94,-442.462 1088.91,-438.429 1088.91,-434.396 1088.91,-434.396 1088.91,-426.33 1088.91,-426.33 1088.91,-422.297 1092.94,-418.264 1096.97,-418.264 1096.97,-418.264 1135.63,-418.264 1135.63,-418.264 1139.67,-418.264 1143.7,-422.297 1143.7,-426.33 1143.7,-426.33 1143.7,-434.396 1143.7,-434.396 1143.7,-438.429 1139.67,-442.462 1135.63,-442.462"/>
<text text-anchor="middle" x="1116.3" y="-427.212" font-family="Arial" font-size="14.00" fill="#cfffac">utils.js</text>
</g>
<!-- about.js&#45;&gt;utils.js -->
<g id="edge5" class="edge"><title>about.js&#45;&gt;utils.js</title>
<path fill="none" stroke="#757575" d="M398.441,-1100.12C404.724,-1063.28 423.899,-950.252 438.744,-856.363 447.132,-803.312 441.469,-659.524 474.744,-617.363 552.155,-519.279 953.921,-453.718 1078.46,-435.512"/>
<polygon fill="#757575" stroke="#757575" points="1079.23,-438.937 1088.62,-434.041 1078.23,-432.009 1079.23,-438.937"/>
</g>
<!-- header.js&#45;&gt;request.js -->
<g id="edge71" class="edge"><title>header.js&#45;&gt;request.js</title>
<path fill="none" stroke="#757575" d="M906.31,-1072.36C948.923,-1072.36 1020.48,-1072.36 1067.8,-1072.36"/>
<polygon fill="#757575" stroke="#757575" points="1068.1,-1075.86 1078.1,-1072.36 1068.1,-1068.86 1068.1,-1075.86"/>
</g>
<!-- nav.js&#45;&gt;credentials.js -->
<g id="edge78" class="edge"><title>nav.js&#45;&gt;credentials.js</title>
<path fill="none" stroke="#757575" d="M896.846,-1185.42C962.955,-1172.9 1138.27,-1139.7 1230.05,-1122.32"/>
<polygon fill="#757575" stroke="#757575" points="1230.84,-1125.74 1240.01,-1120.44 1229.54,-1118.86 1230.84,-1125.74"/>
</g>
<!-- nav.js&#45;&gt;request.js -->
<g id="edge79" class="edge"><title>nav.js&#45;&gt;request.js</title>
<path fill="none" stroke="#757575" d="M896.955,-1188.07C922.336,-1185.1 961.437,-1178.51 992.528,-1164.36 1010.73,-1156.08 1012.52,-1149.36 1028.53,-1137.36 1049.43,-1121.69 1073.18,-1103.91 1090.54,-1090.91"/>
<polygon fill="#757575" stroke="#757575" points="1093.08,-1093.38 1098.99,-1084.58 1088.89,-1087.77 1093.08,-1093.38"/>
</g>
<!-- nav.js&#45;&gt;utils.js -->
<g id="edge80" class="edge"><title>nav.js&#45;&gt;utils.js</title>
<path fill="none" stroke="#757575" d="M894.739,-1178.22C922.937,-1162.61 968.879,-1132.76 992.528,-1093.36 1060.18,-980.662 1103.62,-555.453 1113.27,-452.779"/>
<polygon fill="#757575" stroke="#757575" points="1116.77,-452.905 1114.21,-442.625 1109.8,-452.259 1116.77,-452.905"/>
</g>
<!-- components/typeahead.js -->
<g id="node15" class="node"><title>components/typeahead.js</title>
<path fill="none" stroke="#cfffac" d="M1195.79,-1615.46C1195.79,-1615.46 1036.82,-1615.46 1036.82,-1615.46 1032.79,-1615.46 1028.75,-1611.43 1028.75,-1607.4 1028.75,-1607.4 1028.75,-1599.33 1028.75,-1599.33 1028.75,-1595.3 1032.79,-1591.26 1036.82,-1591.26 1036.82,-1591.26 1195.79,-1591.26 1195.79,-1591.26 1199.82,-1591.26 1203.86,-1595.3 1203.86,-1599.33 1203.86,-1599.33 1203.86,-1607.4 1203.86,-1607.4 1203.86,-1611.43 1199.82,-1615.46 1195.79,-1615.46"/>
<text text-anchor="middle" x="1116.3" y="-1600.21" font-family="Arial" font-size="14.00" fill="#cfffac">components/typeahead.js</text>
</g>
<!-- nav.js&#45;&gt;components/typeahead.js -->
<g id="edge77" class="edge"><title>nav.js&#45;&gt;components/typeahead.js</title>
<path fill="none" stroke="#757575" d="M896.869,-1187.54C924.039,-1186.11 966.215,-1188.33 992.528,-1211.36 1105.9,-1310.6 1115.77,-1513.04 1115.75,-1580.74"/>
<polygon fill="#757575" stroke="#757575" points="1112.25,-1581.06 1115.67,-1591.09 1119.25,-1581.12 1112.25,-1581.06"/>
</g>
<!-- request.js&#45;&gt;credentials.js -->
<g id="edge87" class="edge"><title>request.js&#45;&gt;credentials.js</title>
<path fill="none" stroke="#757575" d="M1154.75,-1080.92C1176.82,-1085.97 1205.21,-1092.46 1230.11,-1098.15"/>
<polygon fill="#757575" stroke="#757575" points="1229.65,-1101.63 1240.17,-1100.45 1231.21,-1094.81 1229.65,-1101.63"/>
</g>
<!-- account.js -->
<g id="node7" class="node"><title>account.js</title>
<path fill="none" stroke="#c6c5fe" d="M426.816,-847.462C426.816,-847.462 363.879,-847.462 363.879,-847.462 359.846,-847.462 355.813,-843.429 355.813,-839.396 355.813,-839.396 355.813,-831.33 355.813,-831.33 355.813,-827.297 359.846,-823.264 363.879,-823.264 363.879,-823.264 426.816,-823.264 426.816,-823.264 430.849,-823.264 434.882,-827.297 434.882,-831.33 434.882,-831.33 434.882,-839.396 434.882,-839.396 434.882,-843.429 430.849,-847.462 426.816,-847.462"/>
<text text-anchor="middle" x="395.348" y="-832.212" font-family="Arial" font-size="14.00" fill="#c6c5fe">account.js</text>
</g>
<!-- account.js&#45;&gt;credentials.js -->
<g id="edge9" class="edge"><title>account.js&#45;&gt;credentials.js</title>
<path fill="none" stroke="#757575" d="M424.063,-823.298C438.806,-817.53 457.423,-811.262 474.744,-808.363 578.293,-791.031 608.232,-786.742 710.971,-808.363 719.333,-810.123 984.885,-928.541 992.528,-932.363 1089.02,-980.605 1113.07,-993.445 1204.08,-1051.36 1224.78,-1064.54 1247.36,-1080.81 1263.87,-1093.08"/>
<polygon fill="#757575" stroke="#757575" points="1261.8,-1095.91 1271.9,-1099.1 1266,-1090.31 1261.8,-1095.91"/>
</g>
<!-- account.js&#45;&gt;header.js -->
<g id="edge10" class="edge"><title>account.js&#45;&gt;header.js</title>
<path fill="none" stroke="#757575" d="M408.436,-847.627C422.879,-861.512 448.414,-883.71 474.744,-895.363 572.329,-938.551 615.036,-891.624 710.971,-938.363 730.216,-947.739 730.763,-956.378 746.971,-970.363 781.15,-999.857 821.413,-1033.34 846.002,-1053.65"/>
<polygon fill="#757575" stroke="#757575" points="844.07,-1056.59 854.011,-1060.25 848.524,-1051.19 844.07,-1056.59"/>
</g>
<!-- account.js&#45;&gt;nav.js -->
<g id="edge11" class="edge"><title>account.js&#45;&gt;nav.js</title>
<path fill="none" stroke="#757575" d="M398.435,-847.509C410.069,-915.059 466.681,-1241.69 474.744,-1248.36 515.177,-1281.84 662.611,-1268.78 710.971,-1248.36 732.107,-1239.44 726.672,-1222.06 746.971,-1211.36 773.378,-1197.45 807.049,-1192.46 832.29,-1190.8"/>
<polygon fill="#757575" stroke="#757575" points="832.737,-1194.28 842.546,-1190.27 832.381,-1187.29 832.737,-1194.28"/>
</g>
<!-- account.js&#45;&gt;request.js -->
<g id="edge12" class="edge"><title>account.js&#45;&gt;request.js</title>
<path fill="none" stroke="#757575" d="M434.961,-825.826C498.613,-812.474 626.88,-795.811 710.971,-853.363 742.812,-875.155 717.437,-907.533 746.971,-932.363 833.298,-1004.94 888.853,-951.964 992.528,-996.363 1028.86,-1011.92 1067,-1037.14 1090.95,-1054.22"/>
<polygon fill="#757575" stroke="#757575" points="1088.94,-1057.09 1099.1,-1060.11 1093.04,-1051.41 1088.94,-1057.09"/>
</g>
<!-- components/date&#45;range&#45;picker.js -->
<g id="node8" class="node"><title>components/date&#45;range&#45;picker.js</title>
<path fill="none" stroke="#cfffac" d="M694.401,-886.462C694.401,-886.462 491.314,-886.462 491.314,-886.462 487.281,-886.462 483.248,-882.429 483.248,-878.396 483.248,-878.396 483.248,-870.33 483.248,-870.33 483.248,-866.297 487.281,-862.264 491.314,-862.264 491.314,-862.264 694.401,-862.264 694.401,-862.264 698.434,-862.264 702.467,-866.297 702.467,-870.33 702.467,-870.33 702.467,-878.396 702.467,-878.396 702.467,-882.429 698.434,-886.462 694.401,-886.462"/>
<text text-anchor="middle" x="592.857" y="-871.212" font-family="Arial" font-size="14.00" fill="#cfffac">components/date&#45;range&#45;picker.js</text>
</g>
<!-- account.js&#45;&gt;components/date&#45;range&#45;picker.js -->
<g id="edge6" class="edge"><title>account.js&#45;&gt;components/date&#45;range&#45;picker.js</title>
<path fill="none" stroke="#757575" d="M434.974,-843.068C459.562,-847.973 492.145,-854.473 521.243,-860.277"/>
<polygon fill="#757575" stroke="#757575" points="520.88,-863.773 531.371,-862.297 522.249,-856.909 520.88,-863.773"/>
</g>
<!-- components/figure&#45;history&#45;list.js -->
<g id="node9" class="node"><title>components/figure&#45;history&#45;list.js</title>
<path fill="none" stroke="#c6c5fe" d="M691.139,-381.462C691.139,-381.462 494.576,-381.462 494.576,-381.462 490.543,-381.462 486.51,-377.429 486.51,-373.396 486.51,-373.396 486.51,-365.33 486.51,-365.33 486.51,-361.297 490.543,-357.264 494.576,-357.264 494.576,-357.264 691.139,-357.264 691.139,-357.264 695.172,-357.264 699.205,-361.297 699.205,-365.33 699.205,-365.33 699.205,-373.396 699.205,-373.396 699.205,-377.429 695.172,-381.462 691.139,-381.462"/>
<text text-anchor="middle" x="592.857" y="-366.212" font-family="Arial" font-size="14.00" fill="#c6c5fe">components/figure&#45;history&#45;list.js</text>
</g>
<!-- account.js&#45;&gt;components/figure&#45;history&#45;list.js -->
<g id="edge7" class="edge"><title>account.js&#45;&gt;components/figure&#45;history&#45;list.js</title>
<path fill="none" stroke="#757575" d="M396.759,-823.015C399.168,-758.344 413.529,-459.214 474.744,-395.363 477.784,-392.192 481.119,-389.367 484.678,-386.852"/>
<polygon fill="#757575" stroke="#757575" points="486.662,-389.741 493.359,-381.532 483.004,-383.773 486.662,-389.741"/>
</g>
<!-- components/figure&#45;inventory&#45;editor.js -->
<g id="node10" class="node"><title>components/figure&#45;inventory&#45;editor.js</title>
<path fill="none" stroke="#c6c5fe" d="M984.242,-422.462C984.242,-422.462 755.257,-422.462 755.257,-422.462 751.224,-422.462 747.191,-418.429 747.191,-414.396 747.191,-414.396 747.191,-406.33 747.191,-406.33 747.191,-402.297 751.224,-398.264 755.257,-398.264 755.257,-398.264 984.242,-398.264 984.242,-398.264 988.275,-398.264 992.308,-402.297 992.308,-406.33 992.308,-406.33 992.308,-414.396 992.308,-414.396 992.308,-418.429 988.275,-422.462 984.242,-422.462"/>
<text text-anchor="middle" x="869.75" y="-407.212" font-family="Arial" font-size="14.00" fill="#c6c5fe">components/figure&#45;inventory&#45;editor.js</text>
</g>
<!-- account.js&#45;&gt;components/figure&#45;inventory&#45;editor.js -->
<g id="edge8" class="edge"><title>account.js&#45;&gt;components/figure&#45;inventory&#45;editor.js</title>
<path fill="none" stroke="#757575" d="M397.163,-823.223C401.281,-765.711 421.72,-521.371 474.744,-471.363 554.749,-395.91 687.205,-390.616 776.194,-397.46"/>
<polygon fill="#757575" stroke="#757575" points="776.027,-400.958 786.283,-398.302 776.609,-393.982 776.027,-400.958"/>
</g>
<!-- components/figure&#45;history&#45;list.js&#45;&gt;request.js -->
<g id="edge43" class="edge"><title>components/figure&#45;history&#45;list.js&#45;&gt;request.js</title>
<path fill="none" stroke="#757575" d="M699.271,-380.618C703.309,-382.312 707.227,-384.219 710.971,-386.363 733.196,-399.092 725.804,-416.941 746.971,-431.363 841.383,-495.691 915.3,-423.175 992.528,-507.363 1068,-589.639 1105.02,-955.563 1113.42,-1050.04"/>
<polygon fill="#757575" stroke="#757575" points="1109.95,-1050.52 1114.3,-1060.18 1116.92,-1049.92 1109.95,-1050.52"/>
</g>
<!-- components/edit&#45;dialog.js -->
<g id="node20" class="node"><title>components/edit&#45;dialog.js</title>
<path fill="none" stroke="#c6c5fe" d="M948.942,-300.462C948.942,-300.462 790.557,-300.462 790.557,-300.462 786.524,-300.462 782.492,-296.429 782.492,-292.396 782.492,-292.396 782.492,-284.33 782.492,-284.33 782.492,-280.297 786.524,-276.264 790.557,-276.264 790.557,-276.264 948.942,-276.264 948.942,-276.264 952.975,-276.264 957.007,-280.297 957.007,-284.33 957.007,-284.33 957.007,-292.396 957.007,-292.396 957.007,-296.429 952.975,-300.462 948.942,-300.462"/>
<text text-anchor="middle" x="869.75" y="-285.212" font-family="Arial" font-size="14.00" fill="#c6c5fe">components/edit&#45;dialog.js</text>
</g>
<!-- components/figure&#45;history&#45;list.js&#45;&gt;components/edit&#45;dialog.js -->
<g id="edge41" class="edge"><title>components/figure&#45;history&#45;list.js&#45;&gt;components/edit&#45;dialog.js</title>
<path fill="none" stroke="#757575" d="M635.012,-357.237C683.837,-342.849 765.243,-318.863 817.947,-303.332"/>
<polygon fill="#757575" stroke="#757575" points="819.161,-306.624 827.764,-300.44 817.182,-299.909 819.161,-306.624"/>
</g>
<!-- constants.js -->
<g id="node22" class="node"><title>constants.js</title>
<path fill="none" stroke="#cfffac" d="M906.607,-380.462C906.607,-380.462 832.892,-380.462 832.892,-380.462 828.859,-380.462 824.826,-376.429 824.826,-372.396 824.826,-372.396 824.826,-364.33 824.826,-364.33 824.826,-360.297 828.859,-356.264 832.892,-356.264 832.892,-356.264 906.607,-356.264 906.607,-356.264 910.64,-356.264 914.673,-360.297 914.673,-364.33 914.673,-364.33 914.673,-372.396 914.673,-372.396 914.673,-376.429 910.64,-380.462 906.607,-380.462"/>
<text text-anchor="middle" x="869.75" y="-365.212" font-family="Arial" font-size="14.00" fill="#cfffac">constants.js</text>
</g>
<!-- components/figure&#45;history&#45;list.js&#45;&gt;constants.js -->
<g id="edge42" class="edge"><title>components/figure&#45;history&#45;list.js&#45;&gt;constants.js</title>
<path fill="none" stroke="#757575" d="M699.352,-368.979C738.562,-368.837 781.446,-368.681 814.255,-368.561"/>
<polygon fill="#757575" stroke="#757575" points="814.548,-372.06 824.536,-368.524 814.523,-365.06 814.548,-372.06"/>
</g>
<!-- components/figure&#45;inventory&#45;editor.js&#45;&gt;utils.js -->
<g id="edge44" class="edge"><title>components/figure&#45;inventory&#45;editor.js&#45;&gt;utils.js</title>
<path fill="none" stroke="#757575" d="M992.31,-420.304C1023.7,-422.872 1055.16,-425.445 1078.4,-427.345"/>
<polygon fill="#757575" stroke="#757575" points="1078.22,-430.842 1088.47,-428.169 1078.79,-423.865 1078.22,-430.842"/>
</g>
<!-- admin&#45;components/faction&#45;edit.js -->
<g id="node11" class="node"><title>admin&#45;components/faction&#45;edit.js</title>
<path fill="none" stroke="#c6c5fe" d="M695.726,-1526.46C695.726,-1526.46 489.989,-1526.46 489.989,-1526.46 485.956,-1526.46 481.923,-1522.43 481.923,-1518.4 481.923,-1518.4 481.923,-1510.33 481.923,-1510.33 481.923,-1506.3 485.956,-1502.26 489.989,-1502.26 489.989,-1502.26 695.726,-1502.26 695.726,-1502.26 699.758,-1502.26 703.791,-1506.3 703.791,-1510.33 703.791,-1510.33 703.791,-1518.4 703.791,-1518.4 703.791,-1522.43 699.758,-1526.46 695.726,-1526.46"/>
<text text-anchor="middle" x="592.857" y="-1511.21" font-family="Arial" font-size="14.00" fill="#c6c5fe">admin&#45;components/faction&#45;edit.js</text>
</g>
<!-- admin&#45;components/faction&#45;edit.js&#45;&gt;header.js -->
<g id="edge14" class="edge"><title>admin&#45;components/faction&#45;edit.js&#45;&gt;header.js</title>
<path fill="none" stroke="#757575" d="M700.492,-1502.29C704.274,-1499.72 707.796,-1496.76 710.971,-1493.36 760.457,-1440.46 711.959,-1232.78 746.971,-1169.36 766.892,-1133.28 806.292,-1105.76 834.895,-1089.41"/>
<polygon fill="#757575" stroke="#757575" points="836.713,-1092.41 843.764,-1084.5 833.321,-1086.29 836.713,-1092.41"/>
</g>
<!-- admin&#45;components/faction&#45;edit.js&#45;&gt;nav.js -->
<g id="edge15" class="edge"><title>admin&#45;components/faction&#45;edit.js&#45;&gt;nav.js</title>
<path fill="none" stroke="#757575" d="M700.423,-1502.23C704.224,-1499.67 707.768,-1496.73 710.971,-1493.36 798.032,-1401.79 659.605,-1302.64 746.971,-1211.36 768.609,-1188.76 805.125,-1185.09 832.54,-1186.13"/>
<polygon fill="#757575" stroke="#757575" points="832.361,-1189.62 842.551,-1186.72 832.777,-1182.63 832.361,-1189.62"/>
</g>
<!-- admin&#45;components/faction&#45;edit.js&#45;&gt;request.js -->
<g id="edge16" class="edge"><title>admin&#45;components/faction&#45;edit.js&#45;&gt;request.js</title>
<path fill="none" stroke="#757575" d="M703.899,-1519.13C792.29,-1516.98 914.192,-1499.68 992.528,-1429.36 1094.46,-1337.86 1111.79,-1157.83 1114.72,-1094.8"/>
<polygon fill="#757575" stroke="#757575" points="1118.23,-1094.56 1115.11,-1084.44 1111.23,-1094.3 1118.23,-1094.56"/>
</g>
<!-- admin&#45;components/role&#45;editor.js -->
<g id="node12" class="node"><title>admin&#45;components/role&#45;editor.js</title>
<path fill="none" stroke="#c6c5fe" d="M969.39,-1594.46C969.39,-1594.46 770.109,-1594.46 770.109,-1594.46 766.076,-1594.46 762.043,-1590.43 762.043,-1586.4 762.043,-1586.4 762.043,-1578.33 762.043,-1578.33 762.043,-1574.3 766.076,-1570.26 770.109,-1570.26 770.109,-1570.26 969.39,-1570.26 969.39,-1570.26 973.423,-1570.26 977.456,-1574.3 977.456,-1578.33 977.456,-1578.33 977.456,-1586.4 977.456,-1586.4 977.456,-1590.43 973.423,-1594.46 969.39,-1594.46"/>
<text text-anchor="middle" x="869.75" y="-1579.21" font-family="Arial" font-size="14.00" fill="#c6c5fe">admin&#45;components/role&#45;editor.js</text>
</g>
<!-- admin&#45;components/faction&#45;edit.js&#45;&gt;admin&#45;components/role&#45;editor.js -->
<g id="edge13" class="edge"><title>admin&#45;components/faction&#45;edit.js&#45;&gt;admin&#45;components/role&#45;editor.js</title>
<path fill="none" stroke="#757575" d="M668.462,-1526.45C682.637,-1529.11 697.305,-1532.11 710.971,-1535.36 748.983,-1544.4 791.39,-1557.19 822.659,-1567.15"/>
<polygon fill="#757575" stroke="#757575" points="821.809,-1570.55 832.4,-1570.27 823.947,-1563.88 821.809,-1570.55"/>
</g>
<!-- admin&#45;components/role&#45;editor.js&#45;&gt;request.js -->
<g id="edge24" class="edge"><title>admin&#45;components/role&#45;editor.js&#45;&gt;request.js</title>
<path fill="none" stroke="#757575" d="M972.4,-1570.31C979.765,-1566.64 986.61,-1562.06 992.528,-1556.36 1061.19,-1490.27 1102.47,-1180.7 1112.76,-1094.62"/>
<polygon fill="#757575" stroke="#757575" points="1116.24,-1094.97 1113.93,-1084.63 1109.29,-1094.15 1116.24,-1094.97"/>
</g>
<!-- admin&#45;components/role&#45;editor.js&#45;&gt;components/typeahead.js -->
<g id="edge23" class="edge"><title>admin&#45;components/role&#45;editor.js&#45;&gt;components/typeahead.js</title>
<path fill="none" stroke="#757575" d="M977.659,-1591.54C991.178,-1592.7 1004.95,-1593.89 1018.31,-1595.03"/>
<polygon fill="#757575" stroke="#757575" points="1018.16,-1598.53 1028.42,-1595.9 1018.76,-1591.56 1018.16,-1598.53"/>
</g>
<!-- admin&#45;components/figure&#45;edit.js -->
<g id="node13" class="node"><title>admin&#45;components/figure&#45;edit.js</title>
<path fill="none" stroke="#c6c5fe" d="M692.498,-1400.46C692.498,-1400.46 493.217,-1400.46 493.217,-1400.46 489.184,-1400.46 485.151,-1396.43 485.151,-1392.4 485.151,-1392.4 485.151,-1384.33 485.151,-1384.33 485.151,-1380.3 489.184,-1376.26 493.217,-1376.26 493.217,-1376.26 692.498,-1376.26 692.498,-1376.26 696.531,-1376.26 700.564,-1380.3 700.564,-1384.33 700.564,-1384.33 700.564,-1392.4 700.564,-1392.4 700.564,-1396.43 696.531,-1400.46 692.498,-1400.46"/>
<text text-anchor="middle" x="592.857" y="-1385.21" font-family="Arial" font-size="14.00" fill="#c6c5fe">admin&#45;components/figure&#45;edit.js</text>
</g>
<!-- admin&#45;components/figure&#45;edit.js&#45;&gt;credentials.js -->
<g id="edge17" class="edge"><title>admin&#45;components/figure&#45;edit.js&#45;&gt;credentials.js</title>
<path fill="none" stroke="#757575" d="M700.837,-1386.92C783.326,-1382.51 898.774,-1369.03 992.528,-1330.36 1111.12,-1281.45 1225.53,-1174.4 1269.27,-1130.61"/>
<polygon fill="#757575" stroke="#757575" points="1271.82,-1133.01 1276.37,-1123.43 1266.85,-1128.08 1271.82,-1133.01"/>
</g>
<!-- admin&#45;components/figure&#45;edit.js&#45;&gt;header.js -->
<g id="edge18" class="edge"><title>admin&#45;components/figure&#45;edit.js&#45;&gt;header.js</title>
<path fill="none" stroke="#757575" d="M602.033,-1376.24C631.253,-1332.98 729.699,-1187.75 746.971,-1169.36 776.234,-1138.21 815.808,-1108.54 841.791,-1090.4"/>
<polygon fill="#757575" stroke="#757575" points="843.803,-1093.26 850.047,-1084.7 839.828,-1087.5 843.803,-1093.26"/>
</g>
<!-- admin&#45;components/figure&#45;edit.js&#45;&gt;nav.js -->
<g id="edge19" class="edge"><title>admin&#45;components/figure&#45;edit.js&#45;&gt;nav.js</title>
<path fill="none" stroke="#757575" d="M691.168,-1376.27C698.44,-1372.63 705.183,-1368.06 710.971,-1362.36 760.134,-1313.96 696.667,-1258.58 746.971,-1211.36 769.549,-1190.17 805.381,-1186.2 832.343,-1186.77"/>
<polygon fill="#757575" stroke="#757575" points="832.419,-1190.27 842.559,-1187.2 832.718,-1183.28 832.419,-1190.27"/>
</g>
<!-- admin&#45;components/figure&#45;edit.js&#45;&gt;request.js -->
<g id="edge20" class="edge"><title>admin&#45;components/figure&#45;edit.js&#45;&gt;request.js</title>
<path fill="none" stroke="#757575" d="M667.943,-1376.27C682.516,-1372.68 697.465,-1368.12 710.971,-1362.36 728.658,-1354.82 729.118,-1345.51 746.971,-1338.36 849.836,-1297.2 902.381,-1359.78 992.528,-1295.36 1063.43,-1244.7 1097.95,-1139.77 1110.07,-1094.24"/>
<polygon fill="#757575" stroke="#757575" points="1113.47,-1095.05 1112.56,-1084.49 1106.69,-1093.31 1113.47,-1095.05"/>
</g>
<!-- admin&#45;components/figure&#45;list&#45;edit.js -->
<g id="node14" class="node"><title>admin&#45;components/figure&#45;list&#45;edit.js</title>
<path fill="none" stroke="#c6c5fe" d="M980.162,-1636.46C980.162,-1636.46 759.337,-1636.46 759.337,-1636.46 755.304,-1636.46 751.271,-1632.43 751.271,-1628.4 751.271,-1628.4 751.271,-1620.33 751.271,-1620.33 751.271,-1616.3 755.304,-1612.26 759.337,-1612.26 759.337,-1612.26 980.162,-1612.26 980.162,-1612.26 984.195,-1612.26 988.228,-1616.3 988.228,-1620.33 988.228,-1620.33 988.228,-1628.4 988.228,-1628.4 988.228,-1632.43 984.195,-1636.46 980.162,-1636.46"/>
<text text-anchor="middle" x="869.75" y="-1621.21" font-family="Arial" font-size="14.00" fill="#c6c5fe">admin&#45;components/figure&#45;list&#45;edit.js</text>
</g>
<!-- admin&#45;components/figure&#45;list&#45;edit.js&#45;&gt;request.js -->
<g id="edge22" class="edge"><title>admin&#45;components/figure&#45;list&#45;edit.js&#45;&gt;request.js</title>
<path fill="none" stroke="#757575" d="M980.844,-1612.26C985.017,-1609.7 988.942,-1606.75 992.528,-1603.36 1068.78,-1531.3 1105.05,-1185.66 1113.39,-1094.46"/>
<polygon fill="#757575" stroke="#757575" points="1116.89,-1094.69 1114.29,-1084.42 1109.91,-1094.07 1116.89,-1094.69"/>
</g>
<!-- admin&#45;components/figure&#45;list&#45;edit.js&#45;&gt;components/typeahead.js -->
<g id="edge21" class="edge"><title>admin&#45;components/figure&#45;list&#45;edit.js&#45;&gt;components/typeahead.js</title>
<path fill="none" stroke="#757575" d="M988.371,-1614.26C998.451,-1613.4 1008.57,-1612.53 1018.46,-1611.68"/>
<polygon fill="#757575" stroke="#757575" points="1019.01,-1615.14 1028.68,-1610.8 1018.41,-1608.17 1019.01,-1615.14"/>
</g>
<!-- admin&#45;components/scenario&#45;edit.js -->
<g id="node16" class="node"><title>admin&#45;components/scenario&#45;edit.js</title>
<path fill="none" stroke="#c6c5fe" d="M701.394,-1004.46C701.394,-1004.46 484.321,-1004.46 484.321,-1004.46 480.288,-1004.46 476.255,-1000.43 476.255,-996.396 476.255,-996.396 476.255,-988.33 476.255,-988.33 476.255,-984.297 480.288,-980.264 484.321,-980.264 484.321,-980.264 701.394,-980.264 701.394,-980.264 705.427,-980.264 709.46,-984.297 709.46,-988.33 709.46,-988.33 709.46,-996.396 709.46,-996.396 709.46,-1000.43 705.427,-1004.46 701.394,-1004.46"/>
<text text-anchor="middle" x="592.857" y="-989.212" font-family="Arial" font-size="14.00" fill="#c6c5fe">admin&#45;components/scenario&#45;edit.js</text>
</g>
<!-- admin&#45;components/scenario&#45;edit.js&#45;&gt;header.js -->
<g id="edge25" class="edge"><title>admin&#45;components/scenario&#45;edit.js&#45;&gt;header.js</title>
<path fill="none" stroke="#757575" d="M672.411,-1004.43C685.382,-1007 698.62,-1009.98 710.971,-1013.36 753.272,-1024.96 800.164,-1043.22 831.748,-1056.36"/>
<polygon fill="#757575" stroke="#757575" points="830.461,-1059.61 841.037,-1060.25 833.17,-1053.16 830.461,-1059.61"/>
</g>
<!-- admin&#45;components/scenario&#45;edit.js&#45;&gt;nav.js -->
<g id="edge26" class="edge"><title>admin&#45;components/scenario&#45;edit.js&#45;&gt;nav.js</title>
<path fill="none" stroke="#757575" d="M696.783,-1004.47C701.802,-1006.99 706.574,-1009.93 710.971,-1013.36 741.708,-1037.35 723.05,-1062.57 746.971,-1093.36 772.895,-1126.73 812.569,-1155.52 839.533,-1172.88"/>
<polygon fill="#757575" stroke="#757575" points="837.827,-1175.94 848.152,-1178.31 841.562,-1170.02 837.827,-1175.94"/>
</g>
<!-- admin&#45;components/scenario&#45;edit.js&#45;&gt;request.js -->
<g id="edge27" class="edge"><title>admin&#45;components/scenario&#45;edit.js&#45;&gt;request.js</title>
<path fill="none" stroke="#757575" d="M709.572,-997.393C789.689,-1002.47 898.422,-1012.55 992.528,-1032.36 1020.55,-1038.26 1051.18,-1048.23 1074.84,-1056.75"/>
<polygon fill="#757575" stroke="#757575" points="1073.93,-1060.14 1084.52,-1060.29 1076.33,-1053.57 1073.93,-1060.14"/>
</g>
<!-- character.js -->
<g id="node17" class="node"><title>character.js</title>
<path fill="none" stroke="#c6c5fe" d="M628.378,-1568.46C628.378,-1568.46 557.336,-1568.46 557.336,-1568.46 553.303,-1568.46 549.271,-1564.43 549.271,-1560.4 549.271,-1560.4 549.271,-1552.33 549.271,-1552.33 549.271,-1548.3 553.303,-1544.26 557.336,-1544.26 557.336,-1544.26 628.378,-1544.26 628.378,-1544.26 632.411,-1544.26 636.444,-1548.3 636.444,-1552.33 636.444,-1552.33 636.444,-1560.4 636.444,-1560.4 636.444,-1564.43 632.411,-1568.46 628.378,-1568.46"/>
<text text-anchor="middle" x="592.857" y="-1553.21" font-family="Arial" font-size="14.00" fill="#c6c5fe">character.js</text>
</g>
<!-- character.js&#45;&gt;credentials.js -->
<g id="edge32" class="edge"><title>character.js&#45;&gt;credentials.js</title>
<path fill="none" stroke="#757575" d="M605.06,-1568.53C628.525,-1592.99 685.758,-1647.51 746.971,-1667.36 940.221,-1730.04 1050.68,-1798.56 1204.08,-1665.36 1285.78,-1594.42 1288.81,-1228.44 1288.2,-1133.75"/>
<polygon fill="#757575" stroke="#757575" points="1291.7,-1133.56 1288.11,-1123.59 1284.7,-1133.62 1291.7,-1133.56"/>
</g>
<!-- character.js&#45;&gt;header.js -->
<g id="edge33" class="edge"><title>character.js&#45;&gt;header.js</title>
<path fill="none" stroke="#757575" d="M636.649,-1560.45C661.912,-1560.35 692.471,-1555.39 710.971,-1535.36 766.421,-1475.33 707.925,-1241.16 746.971,-1169.36 766.664,-1133.15 806.107,-1105.66 834.783,-1089.35"/>
<polygon fill="#757575" stroke="#757575" points="836.607,-1092.34 843.677,-1084.45 833.229,-1086.21 836.607,-1092.34"/>
</g>
<!-- character.js&#45;&gt;nav.js -->
<g id="edge34" class="edge"><title>character.js&#45;&gt;nav.js</title>
<path fill="none" stroke="#757575" d="M636.56,-1560.37C661.79,-1560.24 692.345,-1555.28 710.971,-1535.36 809.944,-1429.55 647.646,-1316.85 746.971,-1211.36 768.489,-1188.51 805.188,-1184.92 832.687,-1186.04"/>
<polygon fill="#757575" stroke="#757575" points="832.526,-1189.54 842.725,-1186.67 832.964,-1182.55 832.526,-1189.54"/>
</g>
<!-- character.js&#45;&gt;request.js -->
<g id="edge35" class="edge"><title>character.js&#45;&gt;request.js</title>
<path fill="none" stroke="#757575" d="M636.587,-1554.42C728.386,-1549.38 940.339,-1532.9 992.528,-1486.36 1053.2,-1432.27 1099.17,-1172.79 1111.82,-1094.67"/>
<polygon fill="#757575" stroke="#757575" points="1115.32,-1094.93 1113.44,-1084.5 1108.41,-1093.83 1115.32,-1094.93"/>
</g>
<!-- character.js&#45;&gt;admin&#45;components/figure&#45;list&#45;edit.js -->
<g id="edge28" class="edge"><title>character.js&#45;&gt;admin&#45;components/figure&#45;list&#45;edit.js</title>
<path fill="none" stroke="#757575" d="M628.78,-1568.47C659.59,-1578.82 705.86,-1593.55 746.971,-1603.36 757.516,-1605.88 768.642,-1608.22 779.71,-1610.36"/>
<polygon fill="#757575" stroke="#757575" points="779.366,-1613.86 789.84,-1612.26 780.659,-1606.98 779.366,-1613.86"/>
</g>
<!-- character.js&#45;&gt;components/typeahead.js -->
<g id="edge31" class="edge"><title>character.js&#45;&gt;components/typeahead.js</title>
<path fill="none" stroke="#757575" d="M608.714,-1568.68C634.746,-1589.37 691.159,-1630.32 746.971,-1645.36 852.347,-1673.76 884.87,-1663.27 992.528,-1645.36 1022.41,-1640.39 1054.78,-1629.06 1078.77,-1619.41"/>
<polygon fill="#757575" stroke="#757575" points="1080.27,-1622.58 1088.18,-1615.54 1077.6,-1616.11 1080.27,-1622.58"/>
</g>
<!-- components/select&#45;book.js -->
<g id="node18" class="node"><title>components/select&#45;book.js</title>
<path fill="none" stroke="#c6c5fe" d="M952.435,-1286.46C952.435,-1286.46 787.064,-1286.46 787.064,-1286.46 783.031,-1286.46 778.998,-1282.43 778.998,-1278.4 778.998,-1278.4 778.998,-1270.33 778.998,-1270.33 778.998,-1266.3 783.031,-1262.26 787.064,-1262.26 787.064,-1262.26 952.435,-1262.26 952.435,-1262.26 956.468,-1262.26 960.501,-1266.3 960.501,-1270.33 960.501,-1270.33 960.501,-1278.4 960.501,-1278.4 960.501,-1282.43 956.468,-1286.46 952.435,-1286.46"/>
<text text-anchor="middle" x="869.75" y="-1271.21" font-family="Arial" font-size="14.00" fill="#c6c5fe">components/select&#45;book.js</text>
</g>
<!-- character.js&#45;&gt;components/select&#45;book.js -->
<g id="edge29" class="edge"><title>character.js&#45;&gt;components/select&#45;book.js</title>
<path fill="none" stroke="#757575" d="M636.632,-1557.06C660.361,-1555.51 689.352,-1550.22 710.971,-1535.36 799.163,-1474.74 846.448,-1347.14 862.445,-1296.12"/>
<polygon fill="#757575" stroke="#757575" points="865.825,-1297.03 865.387,-1286.45 859.128,-1295 865.825,-1297.03"/>
</g>
<!-- components/select&#45;faction.js -->
<g id="node19" class="node"><title>components/select&#45;faction.js</title>
<path fill="none" stroke="#c6c5fe" d="M957.825,-1244.46C957.825,-1244.46 781.674,-1244.46 781.674,-1244.46 777.641,-1244.46 773.609,-1240.43 773.609,-1236.4 773.609,-1236.4 773.609,-1228.33 773.609,-1228.33 773.609,-1224.3 777.641,-1220.26 781.674,-1220.26 781.674,-1220.26 957.825,-1220.26 957.825,-1220.26 961.858,-1220.26 965.89,-1224.3 965.89,-1228.33 965.89,-1228.33 965.89,-1236.4 965.89,-1236.4 965.89,-1240.43 961.858,-1244.46 957.825,-1244.46"/>
<text text-anchor="middle" x="869.75" y="-1229.21" font-family="Arial" font-size="14.00" fill="#c6c5fe">components/select&#45;faction.js</text>
</g>
<!-- character.js&#45;&gt;components/select&#45;faction.js -->
<g id="edge30" class="edge"><title>character.js&#45;&gt;components/select&#45;faction.js</title>
<path fill="none" stroke="#757575" d="M636.446,-1560.26C661.633,-1560.09 692.183,-1555.12 710.971,-1535.36 798.032,-1443.79 659.605,-1344.64 746.971,-1253.36 751.954,-1248.16 757.727,-1243.95 763.996,-1240.58"/>
<polygon fill="#757575" stroke="#757575" points="765.874,-1243.57 773.501,-1236.22 762.953,-1237.21 765.874,-1243.57"/>
</g>
<!-- components/select&#45;book.js&#45;&gt;utils.js -->
<g id="edge47" class="edge"><title>components/select&#45;book.js&#45;&gt;utils.js</title>
<path fill="none" stroke="#757575" d="M960.691,-1272.18C972.632,-1268.31 983.755,-1262.34 992.528,-1253.36 999.811,-1245.91 1093.73,-583.099 1112.17,-452.545"/>
<polygon fill="#757575" stroke="#757575" points="1115.66,-452.907 1113.59,-442.516 1108.73,-451.928 1115.66,-452.907"/>
</g>
<!-- components/select&#45;faction.js&#45;&gt;utils.js -->
<g id="edge48" class="edge"><title>components/select&#45;faction.js&#45;&gt;utils.js</title>
<path fill="none" stroke="#757575" d="M966.081,-1228.18C975.951,-1224.35 985.075,-1218.93 992.528,-1211.36 1006.36,-1197.32 1094.3,-579.094 1112.15,-452.765"/>
<polygon fill="#757575" stroke="#757575" points="1115.64,-453.093 1113.57,-442.702 1108.7,-452.114 1115.64,-453.093"/>
</g>
<!-- components/edit&#45;dialog.js&#45;&gt;request.js -->
<g id="edge36" class="edge"><title>components/edit&#45;dialog.js&#45;&gt;request.js</title>
<path fill="none" stroke="#757575" d="M957.097,-293.285C970.418,-297.599 982.917,-304.261 992.528,-314.363 1018.84,-342.022 1096.39,-927.236 1112.39,-1049.93"/>
<polygon fill="#757575" stroke="#757575" points="1108.95,-1050.57 1113.71,-1060.03 1115.89,-1049.67 1108.95,-1050.57"/>
</g>
<!-- components/edit&#45;dialog.js&#45;&gt;utils.js -->
<g id="edge37" class="edge"><title>components/edit&#45;dialog.js&#45;&gt;utils.js</title>
<path fill="none" stroke="#757575" d="M956.687,-300.499C969.106,-304.008 981.428,-308.532 992.528,-314.363 1038.01,-338.255 1078.74,-383.773 1099.92,-410.128"/>
<polygon fill="#757575" stroke="#757575" points="1097.4,-412.581 1106.34,-418.273 1102.9,-408.251 1097.4,-412.581"/>
</g>
<!-- components/edit&#45;inventory&#45;dialog.js -->
<g id="node21" class="node"><title>components/edit&#45;inventory&#45;dialog.js</title>
<path fill="none" stroke="#c6c5fe" d="M703.018,-225.462C703.018,-225.462 482.697,-225.462 482.697,-225.462 478.664,-225.462 474.631,-221.429 474.631,-217.396 474.631,-217.396 474.631,-209.33 474.631,-209.33 474.631,-205.297 478.664,-201.264 482.697,-201.264 482.697,-201.264 703.018,-201.264 703.018,-201.264 707.051,-201.264 711.084,-205.297 711.084,-209.33 711.084,-209.33 711.084,-217.396 711.084,-217.396 711.084,-221.429 707.051,-225.462 703.018,-225.462"/>
<text text-anchor="middle" x="592.857" y="-210.212" font-family="Arial" font-size="14.00" fill="#c6c5fe">components/edit&#45;inventory&#45;dialog.js</text>
</g>
<!-- components/edit&#45;inventory&#45;dialog.js&#45;&gt;request.js -->
<g id="edge39" class="edge"><title>components/edit&#45;inventory&#45;dialog.js&#45;&gt;request.js</title>
<path fill="none" stroke="#757575" d="M711.079,-222.141C821.386,-231.527 972.577,-247.743 992.528,-267.363 1007.04,-281.631 1094.8,-921.708 1112.28,-1050.08"/>
<polygon fill="#757575" stroke="#757575" points="1108.85,-1050.84 1113.66,-1060.28 1115.79,-1049.9 1108.85,-1050.84"/>
</g>
<!-- components/edit&#45;inventory&#45;dialog.js&#45;&gt;utils.js -->
<g id="edge40" class="edge"><title>components/edit&#45;inventory&#45;dialog.js&#45;&gt;utils.js</title>
<path fill="none" stroke="#757575" d="M648.96,-201.27C730.312,-186.541 884.559,-170.825 992.528,-234.363 1059.84,-273.975 1095.74,-366.549 1109.11,-408.731"/>
<polygon fill="#757575" stroke="#757575" points="1105.76,-409.761 1112.02,-418.307 1112.46,-407.721 1105.76,-409.761"/>
</g>
<!-- components/edit&#45;inventory&#45;dialog.js&#45;&gt;components/edit&#45;dialog.js -->
<g id="edge38" class="edge"><title>components/edit&#45;inventory&#45;dialog.js&#45;&gt;components/edit&#45;dialog.js</title>
<path fill="none" stroke="#757575" d="M666.926,-225.439C681.798,-229.041 697.121,-233.613 710.971,-239.363 728.506,-246.643 729.406,-255.154 746.971,-262.363 757.986,-266.884 769.899,-270.663 781.813,-273.81"/>
<polygon fill="#757575" stroke="#757575" points="781.251,-277.277 791.801,-276.307 782.949,-270.486 781.251,-277.277"/>
</g>
<!-- components/filters.js -->
<g id="node23" class="node"><title>components/filters.js</title>
<path fill="none" stroke="#c6c5fe" d="M933.291,-106.462C933.291,-106.462 806.208,-106.462 806.208,-106.462 802.175,-106.462 798.143,-102.429 798.143,-98.396 798.143,-98.396 798.143,-90.3301 798.143,-90.3301 798.143,-86.2971 802.175,-82.2642 806.208,-82.2642 806.208,-82.2642 933.291,-82.2642 933.291,-82.2642 937.324,-82.2642 941.356,-86.2971 941.356,-90.3301 941.356,-90.3301 941.356,-98.396 941.356,-98.396 941.356,-102.429 937.324,-106.462 933.291,-106.462"/>
<text text-anchor="middle" x="869.75" y="-91.2124" font-family="Arial" font-size="14.00" fill="#c6c5fe">components/filters.js</text>
</g>
<!-- components/filters.js&#45;&gt;credentials.js -->
<g id="edge45" class="edge"><title>components/filters.js&#45;&gt;credentials.js</title>
<path fill="none" stroke="#757575" d="M941.473,-100.505C959.152,-104.375 977.376,-110.552 992.528,-120.363 1126.14,-206.881 1145.72,-261.267 1204.08,-409.363 1254.77,-537.998 1281.18,-983.906 1286.79,-1089.03"/>
<polygon fill="#757575" stroke="#757575" points="1283.3,-1089.33 1287.32,-1099.14 1290.29,-1088.97 1283.3,-1089.33"/>
</g>
<!-- components/filters.js&#45;&gt;utils.js -->
<g id="edge46" class="edge"><title>components/filters.js&#45;&gt;utils.js</title>
<path fill="none" stroke="#757575" d="M941.608,-96.5432C960.105,-100.326 978.706,-107.449 992.528,-120.363 1035.09,-160.123 1008.04,-191.845 1028.53,-246.363 1051.37,-307.146 1086.16,-375.525 1103.95,-409.24"/>
<polygon fill="#757575" stroke="#757575" points="1100.92,-410.982 1108.7,-418.17 1107.1,-407.697 1100.92,-410.982"/>
</g>
<!-- components/pie.js -->
<g id="node24" class="node"><title>components/pie.js</title>
<path fill="none" stroke="#cfffac" d="M926.025,-540.462C926.025,-540.462 813.474,-540.462 813.474,-540.462 809.442,-540.462 805.409,-536.429 805.409,-532.396 805.409,-532.396 805.409,-524.33 805.409,-524.33 805.409,-520.297 809.442,-516.264 813.474,-516.264 813.474,-516.264 926.025,-516.264 926.025,-516.264 930.057,-516.264 934.09,-520.297 934.09,-524.33 934.09,-524.33 934.09,-532.396 934.09,-532.396 934.09,-536.429 930.057,-540.462 926.025,-540.462"/>
<text text-anchor="middle" x="869.75" y="-525.212" font-family="Arial" font-size="14.00" fill="#cfffac">components/pie.js</text>
</g>
<!-- components/star&#45;rating.js -->
<g id="node25" class="node"><title>components/star&#45;rating.js</title>
<path fill="none" stroke="#cfffac" d="M948.362,-696.462C948.362,-696.462 791.137,-696.462 791.137,-696.462 787.104,-696.462 783.071,-692.429 783.071,-688.396 783.071,-688.396 783.071,-680.33 783.071,-680.33 783.071,-676.297 787.104,-672.264 791.137,-672.264 791.137,-672.264 948.362,-672.264 948.362,-672.264 952.395,-672.264 956.428,-676.297 956.428,-680.33 956.428,-680.33 956.428,-688.396 956.428,-688.396 956.428,-692.429 952.395,-696.462 948.362,-696.462"/>
<text text-anchor="middle" x="869.75" y="-681.212" font-family="Arial" font-size="14.00" fill="#cfffac">components/star&#45;rating.js</text>
</g>
<!-- figure&#45;details.js -->
<g id="node26" class="node"><title>figure&#45;details.js</title>
<path fill="none" stroke="#c6c5fe" d="M307.961,-381.462C307.961,-381.462 213.79,-381.462 213.79,-381.462 209.757,-381.462 205.724,-377.429 205.724,-373.396 205.724,-373.396 205.724,-365.33 205.724,-365.33 205.724,-361.297 209.757,-357.264 213.79,-357.264 213.79,-357.264 307.961,-357.264 307.961,-357.264 311.994,-357.264 316.027,-361.297 316.027,-365.33 316.027,-365.33 316.027,-373.396 316.027,-373.396 316.027,-377.429 311.994,-381.462 307.961,-381.462"/>
<text text-anchor="middle" x="260.875" y="-366.212" font-family="Arial" font-size="14.00" fill="#c6c5fe">figure&#45;details.js</text>
</g>
<!-- figure&#45;details.js&#45;&gt;credentials.js -->
<g id="edge54" class="edge"><title>figure&#45;details.js&#45;&gt;credentials.js</title>
<path fill="none" stroke="#757575" d="M261.625,-357.086C261.412,-312.056 267,-154.433 351.951,-74.363 431.778,0.877049 482.161,-16.363 591.857,-16.363 591.857,-16.363 591.857,-16.363 870.75,-16.363 1020.55,-16.363 1101.86,43.146 1204.08,-66.363 1276.33,-143.764 1286.51,-943.874 1287.77,-1088.89"/>
<polygon fill="#757575" stroke="#757575" points="1284.27,-1089.23 1287.85,-1099.2 1291.27,-1089.17 1284.27,-1089.23"/>
</g>
<!-- figure&#45;details.js&#45;&gt;header.js -->
<g id="edge56" class="edge"><title>figure&#45;details.js&#45;&gt;header.js</title>
<path fill="none" stroke="#757575" d="M262.8,-381.771C268.051,-449.599 295.903,-775.425 351.951,-856.363 447.339,-994.11 554.797,-910.676 710.971,-971.363 763.395,-991.735 816.989,-1030.67 846.251,-1053.8"/>
<polygon fill="#757575" stroke="#757575" points="844.188,-1056.63 854.181,-1060.15 848.565,-1051.16 844.188,-1056.63"/>
</g>
<!-- figure&#45;details.js&#45;&gt;nav.js -->
<g id="edge57" class="edge"><title>figure&#45;details.js&#45;&gt;nav.js</title>
<path fill="none" stroke="#757575" d="M262.545,-381.509C267.401,-467.576 298.553,-986.152 351.951,-1133.36 385.982,-1227.18 386.976,-1273.86 474.744,-1321.36 567.077,-1371.34 625.967,-1382.98 710.971,-1321.36 752.619,-1291.17 708.049,-1245 746.971,-1211.36 770.33,-1191.18 805.906,-1187.05 832.584,-1187.31"/>
<polygon fill="#757575" stroke="#757575" points="832.586,-1190.81 842.688,-1187.61 832.798,-1183.81 832.586,-1190.81"/>
</g>
<!-- figure&#45;details.js&#45;&gt;request.js -->
<g id="edge58" class="edge"><title>figure&#45;details.js&#45;&gt;request.js</title>
<path fill="none" stroke="#757575" d="M266.691,-381.691C285.832,-429.254 361.063,-603.06 474.744,-701.363 561.927,-776.752 621.789,-735.35 710.971,-808.363 732.159,-825.71 724.561,-842.626 746.971,-858.363 839.842,-923.582 897.062,-867.004 992.528,-928.363 1042.87,-960.72 1083.73,-1019.94 1103.12,-1051.41"/>
<polygon fill="#757575" stroke="#757575" points="1100.27,-1053.46 1108.43,-1060.22 1106.27,-1049.85 1100.27,-1053.46"/>
</g>
<!-- figure&#45;details.js&#45;&gt;utils.js -->
<g id="edge59" class="edge"><title>figure&#45;details.js&#45;&gt;utils.js</title>
<path fill="none" stroke="#757575" d="M265.297,-357.21C274.345,-327.234 301.718,-249.106 351.951,-206.363 396.103,-168.794 417.646,-172.392 474.744,-162.363 588.073,-142.457 900.951,-91.6988 992.528,-161.363 1040.24,-197.661 1004.4,-236.478 1028.53,-291.363 1048.19,-336.093 1080.53,-383.369 1099.68,-409.642"/>
<polygon fill="#757575" stroke="#757575" points="1097.11,-412.052 1105.87,-418.02 1102.74,-407.896 1097.11,-412.052"/>
</g>
<!-- figure&#45;details.js&#45;&gt;components/figure&#45;history&#45;list.js -->
<g id="edge51" class="edge"><title>figure&#45;details.js&#45;&gt;components/figure&#45;history&#45;list.js</title>
<path fill="none" stroke="#757575" d="M315.996,-369.363C359.372,-369.363 421.777,-369.363 476.264,-369.363"/>
<polygon fill="#757575" stroke="#757575" points="476.34,-372.863 486.34,-369.363 476.34,-365.863 476.34,-372.863"/>
</g>
<!-- figure&#45;details.js&#45;&gt;components/edit&#45;dialog.js -->
<g id="edge49" class="edge"><title>figure&#45;details.js&#45;&gt;components/edit&#45;dialog.js</title>
<path fill="none" stroke="#757575" d="M275.393,-357.231C292.09,-342.991 321.975,-319.866 351.951,-308.363 494.473,-253.671 675.63,-262.802 781.244,-275.106"/>
<polygon fill="#757575" stroke="#757575" points="780.879,-278.587 791.225,-276.305 781.714,-271.637 780.879,-278.587"/>
</g>
<!-- figure&#45;details.js&#45;&gt;components/edit&#45;inventory&#45;dialog.js -->
<g id="edge50" class="edge"><title>figure&#45;details.js&#45;&gt;components/edit&#45;inventory&#45;dialog.js</title>
<path fill="none" stroke="#757575" d="M266.298,-357.052C276.607,-330.352 304.984,-267.287 351.951,-239.363 385.338,-219.513 426.009,-210.63 464.309,-207.375"/>
<polygon fill="#757575" stroke="#757575" points="464.793,-210.849 474.513,-206.634 464.285,-203.868 464.793,-210.849"/>
</g>
<!-- figure&#45;details.js&#45;&gt;components/filters.js -->
<g id="edge52" class="edge"><title>figure&#45;details.js&#45;&gt;components/filters.js</title>
<path fill="none" stroke="#757575" d="M261.946,-357.063C262.923,-315.453 272.312,-179.285 351.951,-120.363 491.767,-16.9192 715.678,-55.0651 816.526,-79.8067"/>
<polygon fill="#757575" stroke="#757575" points="815.921,-83.2634 826.472,-82.3021 817.624,-76.4739 815.921,-83.2634"/>
</g>
<!-- figure&#45;details.js&#45;&gt;components/pie.js -->
<g id="edge53" class="edge"><title>figure&#45;details.js&#45;&gt;components/pie.js</title>
<path fill="none" stroke="#757575" d="M287.869,-381.467C327.431,-399.461 405.483,-433.298 474.744,-453.363 584.421,-485.136 715.259,-506.978 795.144,-518.575"/>
<polygon fill="#757575" stroke="#757575" points="794.713,-522.049 805.109,-520.007 795.708,-515.12 794.713,-522.049"/>
</g>
<!-- figure&#45;list.js -->
<g id="node27" class="node"><title>figure&#45;list.js</title>
<path fill="none" stroke="#c6c5fe" d="M430.575,-341.462C430.575,-341.462 360.12,-341.462 360.12,-341.462 356.087,-341.462 352.054,-337.429 352.054,-333.396 352.054,-333.396 352.054,-325.33 352.054,-325.33 352.054,-321.297 356.087,-317.264 360.12,-317.264 360.12,-317.264 430.575,-317.264 430.575,-317.264 434.608,-317.264 438.641,-321.297 438.641,-325.33 438.641,-325.33 438.641,-333.396 438.641,-333.396 438.641,-337.429 434.608,-341.462 430.575,-341.462"/>
<text text-anchor="middle" x="395.348" y="-326.212" font-family="Arial" font-size="14.00" fill="#c6c5fe">figure&#45;list.js</text>
</g>
<!-- figure&#45;details.js&#45;&gt;figure&#45;list.js -->
<g id="edge55" class="edge"><title>figure&#45;details.js&#45;&gt;figure&#45;list.js</title>
<path fill="none" stroke="#757575" d="M301.981,-357.253C315.34,-353.219 330.387,-348.676 344.398,-344.445"/>
<polygon fill="#757575" stroke="#757575" points="345.817,-347.673 354.378,-341.432 343.794,-340.972 345.817,-347.673"/>
</g>
<!-- figure&#45;list.js&#45;&gt;credentials.js -->
<g id="edge63" class="edge"><title>figure&#45;list.js&#45;&gt;credentials.js</title>
<path fill="none" stroke="#757575" d="M398.585,-317.298C404.872,-286.779 425.552,-205.852 474.744,-162.363 596.221,-54.9703 1103.01,-14.5767 1204.08,-141.363 1265.12,-217.936 1284.36,-950.713 1287.46,-1088.94"/>
<polygon fill="#757575" stroke="#757575" points="1283.96,-1089.23 1287.68,-1099.16 1290.96,-1089.08 1283.96,-1089.23"/>
</g>
<!-- figure&#45;list.js&#45;&gt;header.js -->
<g id="edge64" class="edge"><title>figure&#45;list.js&#45;&gt;header.js</title>
<path fill="none" stroke="#757575" d="M397.665,-341.717C403.981,-399.194 432.612,-640.222 474.744,-701.363 545.585,-804.165 620.402,-767.434 710.971,-853.363 777.061,-916.068 833.766,-1009.84 857.224,-1051.32"/>
<polygon fill="#757575" stroke="#757575" points="854.279,-1053.23 862.212,-1060.25 860.389,-1049.82 854.279,-1053.23"/>
</g>
<!-- figure&#45;list.js&#45;&gt;nav.js -->
<g id="edge65" class="edge"><title>figure&#45;list.js&#45;&gt;nav.js</title>
<path fill="none" stroke="#757575" d="M397.411,-341.537C406.695,-447.832 473.684,-1214.39 474.744,-1215.36 513.465,-1250.81 658.638,-1219.48 710.971,-1215.36 733.94,-1213.55 793.557,-1203.56 832.575,-1196.77"/>
<polygon fill="#757575" stroke="#757575" points="833.253,-1200.21 842.501,-1195.04 832.047,-1193.31 833.253,-1200.21"/>
</g>
<!-- figure&#45;list.js&#45;&gt;request.js -->
<g id="edge66" class="edge"><title>figure&#45;list.js&#45;&gt;request.js</title>
<path fill="none" stroke="#757575" d="M439.003,-327.598C568.547,-322.654 951.097,-311.272 992.528,-347.363 1020.04,-371.326 1096.33,-930.724 1112.34,-1050.09"/>
<polygon fill="#757575" stroke="#757575" points="1108.9,-1050.78 1113.69,-1060.23 1115.84,-1049.86 1108.9,-1050.78"/>
</g>
<!-- figure&#45;list.js&#45;&gt;utils.js -->
<g id="edge67" class="edge"><title>figure&#45;list.js&#45;&gt;utils.js</title>
<path fill="none" stroke="#757575" d="M399.093,-317.008C406.073,-288.918 427.403,-220.519 474.744,-192.363 524.195,-162.953 945.71,-152.921 992.528,-186.363 1032.67,-215.037 1007.33,-246.817 1028.53,-291.363 1049.63,-335.711 1081.74,-383.461 1100.41,-409.855"/>
<polygon fill="#757575" stroke="#757575" points="1097.75,-412.156 1106.41,-418.259 1103.45,-408.088 1097.75,-412.156"/>
</g>
<!-- figure&#45;list.js&#45;&gt;components/edit&#45;dialog.js -->
<g id="edge60" class="edge"><title>figure&#45;list.js&#45;&gt;components/edit&#45;dialog.js</title>
<path fill="none" stroke="#757575" d="M438.943,-320.892C450.519,-318.826 463.08,-316.8 474.744,-315.363 575.895,-302.903 692.416,-295.809 772.357,-292.052"/>
<polygon fill="#757575" stroke="#757575" points="772.581,-295.545 782.409,-291.587 772.259,-288.552 772.581,-295.545"/>
</g>
<!-- figure&#45;list.js&#45;&gt;components/edit&#45;inventory&#45;dialog.js -->
<g id="edge61" class="edge"><title>figure&#45;list.js&#45;&gt;components/edit&#45;inventory&#45;dialog.js</title>
<path fill="none" stroke="#757575" d="M413.818,-317.153C429.525,-306.325 453.349,-290.273 474.744,-277.363 502.766,-260.455 535.519,-242.721 559.251,-230.221"/>
<polygon fill="#757575" stroke="#757575" points="560.961,-233.276 568.193,-225.533 557.711,-227.076 560.961,-233.276"/>
</g>
<!-- figure&#45;list.js&#45;&gt;components/pie.js -->
<g id="edge62" class="edge"><title>figure&#45;list.js&#45;&gt;components/pie.js</title>
<path fill="none" stroke="#757575" d="M409.694,-341.593C424.679,-354.869 450.133,-376.082 474.744,-390.363 587.903,-456.024 621.997,-463.659 746.971,-502.363 762.448,-507.156 779.3,-511.371 795.396,-514.936"/>
<polygon fill="#757575" stroke="#757575" points="794.788,-518.385 805.301,-517.071 796.262,-511.542 794.788,-518.385"/>
</g>
<!-- forgot&#45;password.js -->
<g id="node28" class="node"><title>forgot&#45;password.js</title>
<path fill="none" stroke="#c6c5fe" d="M650.171,-1206.46C650.171,-1206.46 535.544,-1206.46 535.544,-1206.46 531.511,-1206.46 527.478,-1202.43 527.478,-1198.4 527.478,-1198.4 527.478,-1190.33 527.478,-1190.33 527.478,-1186.3 531.511,-1182.26 535.544,-1182.26 535.544,-1182.26 650.171,-1182.26 650.171,-1182.26 654.204,-1182.26 658.237,-1186.3 658.237,-1190.33 658.237,-1190.33 658.237,-1198.4 658.237,-1198.4 658.237,-1202.43 654.204,-1206.46 650.171,-1206.46"/>
<text text-anchor="middle" x="592.857" y="-1191.21" font-family="Arial" font-size="14.00" fill="#c6c5fe">forgot&#45;password.js</text>
</g>
<!-- forgot&#45;password.js&#45;&gt;header.js -->
<g id="edge68" class="edge"><title>forgot&#45;password.js&#45;&gt;header.js</title>
<path fill="none" stroke="#757575" d="M658.228,-1190.12C676.062,-1187.04 694.917,-1181.89 710.971,-1173.36 731.234,-1162.6 728.588,-1150.09 746.971,-1136.36 772.932,-1116.97 805.579,-1100.16 830.533,-1088.64"/>
<polygon fill="#757575" stroke="#757575" points="832.028,-1091.8 839.691,-1084.49 829.138,-1085.43 832.028,-1091.8"/>
</g>
<!-- forgot&#45;password.js&#45;&gt;nav.js -->
<g id="edge69" class="edge"><title>forgot&#45;password.js&#45;&gt;nav.js</title>
<path fill="none" stroke="#757575" d="M658.307,-1193.43C712.665,-1192.63 788.482,-1191.53 832.714,-1190.89"/>
<polygon fill="#757575" stroke="#757575" points="832.768,-1194.39 842.716,-1190.74 832.666,-1187.39 832.768,-1194.39"/>
</g>
<!-- forgot&#45;password.js&#45;&gt;request.js -->
<g id="edge70" class="edge"><title>forgot&#45;password.js&#45;&gt;request.js</title>
<path fill="none" stroke="#757575" d="M658.222,-1183.81C766.913,-1165.92 976.641,-1131.13 992.528,-1126.36 1024.42,-1116.79 1059,-1101.06 1083.31,-1089.04"/>
<polygon fill="#757575" stroke="#757575" points="1085.04,-1092.08 1092.41,-1084.47 1081.91,-1085.83 1085.04,-1092.08"/>
</g>
<!-- initialize.js -->
<g id="node29" class="node"><title>initialize.js</title>
<path fill="none" stroke="#c6c5fe" d="M71.6341,-1144.46C71.6341,-1144.46 8.16574,-1144.46 8.16574,-1144.46 4.13279,-1144.46 0.0998472,-1140.43 0.0998472,-1136.4 0.0998472,-1136.4 0.0998472,-1128.33 0.0998472,-1128.33 0.0998472,-1124.3 4.13279,-1120.26 8.16574,-1120.26 8.16574,-1120.26 71.6341,-1120.26 71.6341,-1120.26 75.667,-1120.26 79.7,-1124.3 79.7,-1128.33 79.7,-1128.33 79.7,-1136.4 79.7,-1136.4 79.7,-1140.43 75.667,-1144.46 71.6341,-1144.46"/>
<text text-anchor="middle" x="39.8999" y="-1129.21" font-family="Arial" font-size="14.00" fill="#c6c5fe">initialize.js</text>
</g>
<!-- sbg.js -->
<g id="node30" class="node"><title>sbg.js</title>
<path fill="none" stroke="#c6c5fe" d="M161.734,-1144.46C161.734,-1144.46 123.866,-1144.46 123.866,-1144.46 119.833,-1144.46 115.8,-1140.43 115.8,-1136.4 115.8,-1136.4 115.8,-1128.33 115.8,-1128.33 115.8,-1124.3 119.833,-1120.26 123.866,-1120.26 123.866,-1120.26 161.734,-1120.26 161.734,-1120.26 165.767,-1120.26 169.8,-1124.3 169.8,-1128.33 169.8,-1128.33 169.8,-1136.4 169.8,-1136.4 169.8,-1140.43 165.767,-1144.46 161.734,-1144.46"/>
<text text-anchor="middle" x="142.8" y="-1129.21" font-family="Arial" font-size="14.00" fill="#c6c5fe">sbg.js</text>
</g>
<!-- initialize.js&#45;&gt;sbg.js -->
<g id="edge72" class="edge"><title>initialize.js&#45;&gt;sbg.js</title>
<path fill="none" stroke="#757575" d="M79.9104,-1132.36C88.3327,-1132.36 97.2041,-1132.36 105.517,-1132.36"/>
<polygon fill="#757575" stroke="#757575" points="105.672,-1135.86 115.672,-1132.36 105.672,-1128.86 105.672,-1135.86"/>
</g>
<!-- sbg.js&#45;&gt;about.js -->
<g id="edge88" class="edge"><title>sbg.js&#45;&gt;about.js</title>
<path fill="none" stroke="#757575" d="M170.139,-1130.26C213.512,-1126.8 300.325,-1119.87 352.281,-1115.72"/>
<polygon fill="#757575" stroke="#757575" points="352.808,-1119.19 362.497,-1114.91 352.251,-1112.21 352.808,-1119.19"/>
</g>
<!-- sbg.js&#45;&gt;credentials.js -->
<g id="edge94" class="edge"><title>sbg.js&#45;&gt;credentials.js</title>
<path fill="none" stroke="#757575" d="M144.192,-1144.64C146.055,-1192.27 156.127,-1368.91 205.8,-1503.36 262.078,-1655.7 231.946,-1816.36 394.348,-1816.36 394.348,-1816.36 394.348,-1816.36 870.75,-1816.36 1021.6,-1816.36 1100.64,-1862.16 1204.08,-1752.36 1290.5,-1660.63 1289.82,-1236.53 1288.36,-1133.81"/>
<polygon fill="#757575" stroke="#757575" points="1291.85,-1133.59 1288.19,-1123.65 1284.85,-1133.71 1291.85,-1133.59"/>
</g>
<!-- sbg.js&#45;&gt;account.js -->
<g id="edge89" class="edge"><title>sbg.js&#45;&gt;account.js</title>
<path fill="none" stroke="#757575" d="M147.07,-1119.95C154.356,-1093.94 173.847,-1032.64 205.8,-990.363 251.289,-930.177 324.698,-878.738 365.193,-852.989"/>
<polygon fill="#757575" stroke="#757575" points="367.179,-855.874 373.79,-847.595 363.459,-849.945 367.179,-855.874"/>
</g>
<!-- sbg.js&#45;&gt;admin&#45;components/faction&#45;edit.js -->
<g id="edge90" class="edge"><title>sbg.js&#45;&gt;admin&#45;components/faction&#45;edit.js</title>
<path fill="none" stroke="#757575" d="M145.118,-1144.51C150.457,-1191.75 171.828,-1362.56 205.8,-1403.36 270.147,-1480.64 384.485,-1506.08 472.084,-1513.56"/>
<polygon fill="#757575" stroke="#757575" points="471.845,-1517.05 482.089,-1514.35 472.394,-1510.07 471.845,-1517.05"/>
</g>
<!-- sbg.js&#45;&gt;admin&#45;components/figure&#45;edit.js -->
<g id="edge91" class="edge"><title>sbg.js&#45;&gt;admin&#45;components/figure&#45;edit.js</title>
<path fill="none" stroke="#757575" d="M150.479,-1144.68C172.808,-1184.46 249.281,-1310 351.951,-1362.36 389.36,-1381.44 434.254,-1389.56 475.036,-1392.39"/>
<polygon fill="#757575" stroke="#757575" points="474.844,-1395.88 485.034,-1392.98 475.259,-1388.9 474.844,-1395.88"/>
</g>
<!-- sbg.js&#45;&gt;admin&#45;components/scenario&#45;edit.js -->
<g id="edge92" class="edge"><title>sbg.js&#45;&gt;admin&#45;components/scenario&#45;edit.js</title>
<path fill="none" stroke="#757575" d="M156.586,-1120.28C168.475,-1109.66 187.116,-1094.51 205.8,-1085.36 292.946,-1042.72 400.946,-1018.85 480.536,-1006.01"/>
<polygon fill="#757575" stroke="#757575" points="481.258,-1009.44 490.589,-1004.42 480.165,-1002.52 481.258,-1009.44"/>
</g>
<!-- sbg.js&#45;&gt;character.js -->
<g id="edge93" class="edge"><title>sbg.js&#45;&gt;character.js</title>
<path fill="none" stroke="#757575" d="M144.634,-1144.54C148.455,-1197.13 165.853,-1404.28 205.8,-1453.36 287.132,-1553.3 453.691,-1562.44 538.975,-1559.93"/>
<polygon fill="#757575" stroke="#757575" points="539.343,-1563.42 549.211,-1559.56 539.091,-1556.42 539.343,-1563.42"/>
</g>
<!-- sbg.js&#45;&gt;figure&#45;details.js -->
<g id="edge95" class="edge"><title>sbg.js&#45;&gt;figure&#45;details.js</title>
<path fill="none" stroke="#757575" d="M144.911,-1120.19C150.133,-1063.88 173.348,-822.995 205.8,-627.363 220.398,-539.357 244.117,-435.788 254.604,-391.382"/>
<polygon fill="#757575" stroke="#757575" points="258.01,-392.184 256.915,-381.646 251.2,-390.567 258.01,-392.184"/>
</g>
<!-- sbg.js&#45;&gt;figure&#45;list.js -->
<g id="edge96" class="edge"><title>sbg.js&#45;&gt;figure&#45;list.js</title>
<path fill="none" stroke="#757575" d="M143.843,-1120.11C144.294,-1024.95 149.394,-405.995 205.8,-348.363 240.313,-313.1 299.1,-312.633 341.874,-318.295"/>
<polygon fill="#757575" stroke="#757575" points="341.428,-321.767 351.831,-319.76 342.447,-314.842 341.428,-321.767"/>
</g>
<!-- sbg.js&#45;&gt;forgot&#45;password.js -->
<g id="edge97" class="edge"><title>sbg.js&#45;&gt;forgot&#45;password.js</title>
<path fill="none" stroke="#757575" d="M170.028,-1142.13C180.953,-1145.86 193.854,-1149.81 205.8,-1152.36 312.6,-1175.15 438.805,-1185.92 517.102,-1190.75"/>
<polygon fill="#757575" stroke="#757575" points="517.16,-1194.26 527.352,-1191.37 517.58,-1187.27 517.16,-1194.26"/>
</g>
<!-- login.js -->
<g id="node31" class="node"><title>login.js</title>
<path fill="none" stroke="#c6c5fe" d="M614.372,-1442.46C614.372,-1442.46 571.343,-1442.46 571.343,-1442.46 567.31,-1442.46 563.277,-1438.43 563.277,-1434.4 563.277,-1434.4 563.277,-1426.33 563.277,-1426.33 563.277,-1422.3 567.31,-1418.26 571.343,-1418.26 571.343,-1418.26 614.372,-1418.26 614.372,-1418.26 618.405,-1418.26 622.438,-1422.3 622.438,-1426.33 622.438,-1426.33 622.438,-1434.4 622.438,-1434.4 622.438,-1438.43 618.405,-1442.46 614.372,-1442.46"/>
<text text-anchor="middle" x="592.857" y="-1427.21" font-family="Arial" font-size="14.00" fill="#c6c5fe">login.js</text>
</g>
<!-- sbg.js&#45;&gt;login.js -->
<g id="edge98" class="edge"><title>sbg.js&#45;&gt;login.js</title>
<path fill="none" stroke="#757575" d="M145.499,-1144.73C150.156,-1174.59 165.569,-1251.74 205.8,-1300.36 294.354,-1407.4 474.307,-1426.72 553.26,-1429.91"/>
<polygon fill="#757575" stroke="#757575" points="553.153,-1433.41 563.266,-1430.25 553.39,-1426.41 553.153,-1433.41"/>
</g>
<!-- page&#45;404.js -->
<g id="node32" class="node"><title>page&#45;404.js</title>
<path fill="none" stroke="#c6c5fe" d="M629.457,-1164.46C629.457,-1164.46 556.258,-1164.46 556.258,-1164.46 552.225,-1164.46 548.192,-1160.43 548.192,-1156.4 548.192,-1156.4 548.192,-1148.33 548.192,-1148.33 548.192,-1144.3 552.225,-1140.26 556.258,-1140.26 556.258,-1140.26 629.457,-1140.26 629.457,-1140.26 633.49,-1140.26 637.523,-1144.3 637.523,-1148.33 637.523,-1148.33 637.523,-1156.4 637.523,-1156.4 637.523,-1160.43 633.49,-1164.46 629.457,-1164.46"/>
<text text-anchor="middle" x="592.857" y="-1149.21" font-family="Arial" font-size="14.00" fill="#c6c5fe">page&#45;404.js</text>
</g>
<!-- sbg.js&#45;&gt;page&#45;404.js -->
<g id="edge99" class="edge"><title>sbg.js&#45;&gt;page&#45;404.js</title>
<path fill="none" stroke="#757575" d="M170.038,-1134.19C181.077,-1134.92 194.059,-1135.74 205.8,-1136.36 324.32,-1142.64 463.418,-1147.88 538.038,-1150.52"/>
<polygon fill="#757575" stroke="#757575" points="538.013,-1154.02 548.13,-1150.88 538.26,-1147.03 538.013,-1154.02"/>
</g>
<!-- register.js -->
<g id="node33" class="node"><title>register.js</title>
<path fill="none" stroke="#c6c5fe" d="M622.702,-1484.46C622.702,-1484.46 563.013,-1484.46 563.013,-1484.46 558.98,-1484.46 554.947,-1480.43 554.947,-1476.4 554.947,-1476.4 554.947,-1468.33 554.947,-1468.33 554.947,-1464.3 558.98,-1460.26 563.013,-1460.26 563.013,-1460.26 622.702,-1460.26 622.702,-1460.26 626.735,-1460.26 630.768,-1464.3 630.768,-1468.33 630.768,-1468.33 630.768,-1476.4 630.768,-1476.4 630.768,-1480.43 626.735,-1484.46 622.702,-1484.46"/>
<text text-anchor="middle" x="592.857" y="-1469.21" font-family="Arial" font-size="14.00" fill="#c6c5fe">register.js</text>
</g>
<!-- sbg.js&#45;&gt;register.js -->
<g id="edge100" class="edge"><title>sbg.js&#45;&gt;register.js</title>
<path fill="none" stroke="#757575" d="M143.827,-1144.47C144.542,-1180.54 151.36,-1288.75 205.8,-1352.36 292.231,-1453.36 462.086,-1470.6 544.615,-1472.73"/>
<polygon fill="#757575" stroke="#757575" points="544.645,-1476.23 554.711,-1472.93 544.781,-1469.23 544.645,-1476.23"/>
</g>
<!-- scenario&#45;details.js -->
<g id="node34" class="node"><title>scenario&#45;details.js</title>
<path fill="none" stroke="#c6c5fe" d="M648.839,-692.462C648.839,-692.462 536.875,-692.462 536.875,-692.462 532.843,-692.462 528.81,-688.429 528.81,-684.396 528.81,-684.396 528.81,-676.33 528.81,-676.33 528.81,-672.297 532.843,-668.264 536.875,-668.264 536.875,-668.264 648.839,-668.264 648.839,-668.264 652.872,-668.264 656.905,-672.297 656.905,-676.33 656.905,-676.33 656.905,-684.396 656.905,-684.396 656.905,-688.429 652.872,-692.462 648.839,-692.462"/>
<text text-anchor="middle" x="592.857" y="-677.212" font-family="Arial" font-size="14.00" fill="#c6c5fe">scenario&#45;details.js</text>
</g>
<!-- sbg.js&#45;&gt;scenario&#45;details.js -->
<g id="edge101" class="edge"><title>sbg.js&#45;&gt;scenario&#45;details.js</title>
<path fill="none" stroke="#757575" d="M143.482,-1120.19C143.094,-1081.17 146.819,-957.438 205.8,-882.363 289.635,-775.652 445.556,-719.303 531.362,-695.135"/>
<polygon fill="#757575" stroke="#757575" points="532.508,-698.45 541.216,-692.414 530.645,-691.702 532.508,-698.45"/>
</g>
<!-- scenario&#45;list.js -->
<g id="node35" class="node"><title>scenario&#45;list.js</title>
<path fill="none" stroke="#c6c5fe" d="M636.981,-650.462C636.981,-650.462 548.733,-650.462 548.733,-650.462 544.7,-650.462 540.668,-646.429 540.668,-642.396 540.668,-642.396 540.668,-634.33 540.668,-634.33 540.668,-630.297 544.7,-626.264 548.733,-626.264 548.733,-626.264 636.981,-626.264 636.981,-626.264 641.014,-626.264 645.047,-630.297 645.047,-634.33 645.047,-634.33 645.047,-642.396 645.047,-642.396 645.047,-646.429 641.014,-650.462 636.981,-650.462"/>
<text text-anchor="middle" x="592.857" y="-635.212" font-family="Arial" font-size="14.00" fill="#c6c5fe">scenario&#45;list.js</text>
</g>
<!-- sbg.js&#45;&gt;scenario&#45;list.js -->
<g id="edge102" class="edge"><title>sbg.js&#45;&gt;scenario&#45;list.js</title>
<path fill="none" stroke="#757575" d="M144.499,-1119.96C147.85,-1064.42 163.876,-838.828 205.8,-784.363 284.421,-682.223 443.158,-651.538 530.608,-642.32"/>
<polygon fill="#757575" stroke="#757575" points="531.046,-645.794 540.651,-641.323 530.354,-638.828 531.046,-645.794"/>
</g>
<!-- stats.js -->
<g id="node36" class="node"><title>stats.js</title>
<path fill="none" stroke="#c6c5fe" d="M614.359,-1046.46C614.359,-1046.46 571.356,-1046.46 571.356,-1046.46 567.323,-1046.46 563.29,-1042.43 563.29,-1038.4 563.29,-1038.4 563.29,-1030.33 563.29,-1030.33 563.29,-1026.3 567.323,-1022.26 571.356,-1022.26 571.356,-1022.26 614.359,-1022.26 614.359,-1022.26 618.391,-1022.26 622.424,-1026.3 622.424,-1030.33 622.424,-1030.33 622.424,-1038.4 622.424,-1038.4 622.424,-1042.43 618.391,-1046.46 614.359,-1046.46"/>
<text text-anchor="middle" x="592.857" y="-1031.21" font-family="Arial" font-size="14.00" fill="#c6c5fe">stats.js</text>
</g>
<!-- sbg.js&#45;&gt;stats.js -->
<g id="edge103" class="edge"><title>sbg.js&#45;&gt;stats.js</title>
<path fill="none" stroke="#757575" d="M169.923,-1124.29C180.943,-1121.01 193.943,-1117.31 205.8,-1114.36 331.856,-1083.05 483.152,-1054.21 553.01,-1041.37"/>
<polygon fill="#757575" stroke="#757575" points="553.903,-1044.77 563.11,-1039.52 552.643,-1037.88 553.903,-1044.77"/>
</g>
<!-- login.js&#45;&gt;credentials.js -->
<g id="edge73" class="edge"><title>login.js&#45;&gt;credentials.js</title>
<path fill="none" stroke="#757575" d="M622.719,-1431.67C719.216,-1434.41 1034.09,-1429.86 1204.08,-1266.36 1244.27,-1227.71 1269.74,-1165.52 1281.07,-1132.91"/>
<polygon fill="#757575" stroke="#757575" points="1284.39,-1134.02 1284.26,-1123.42 1277.76,-1131.79 1284.39,-1134.02"/>
</g>
<!-- login.js&#45;&gt;header.js -->
<g id="edge74" class="edge"><title>login.js&#45;&gt;header.js</title>
<path fill="none" stroke="#757575" d="M622.459,-1433.79C649.193,-1435.27 688.296,-1432.69 710.971,-1409.36 786.143,-1332.01 693.047,-1262.78 746.971,-1169.36 767.639,-1133.56 807.079,-1105.91 835.483,-1089.46"/>
<polygon fill="#757575" stroke="#757575" points="837.278,-1092.46 844.28,-1084.51 833.848,-1086.36 837.278,-1092.46"/>
</g>
<!-- login.js&#45;&gt;nav.js -->
<g id="edge75" class="edge"><title>login.js&#45;&gt;nav.js</title>
<path fill="none" stroke="#757575" d="M622.553,-1433.65C649.165,-1434.98 688.011,-1432.27 710.971,-1409.36 774.293,-1346.19 683.438,-1274.32 746.971,-1211.36 769.034,-1189.5 805.092,-1185.65 832.259,-1186.43"/>
<polygon fill="#757575" stroke="#757575" points="832.389,-1189.94 842.554,-1186.95 832.745,-1182.95 832.389,-1189.94"/>
</g>
<!-- login.js&#45;&gt;request.js -->
<g id="edge76" class="edge"><title>login.js&#45;&gt;request.js</title>
<path fill="none" stroke="#757575" d="M622.693,-1429.65C647.295,-1428.02 683.017,-1423.2 710.971,-1409.36 730.423,-1399.73 727.556,-1386.07 746.971,-1376.36 846.288,-1326.71 904.534,-1398.08 992.528,-1330.36 1071.64,-1269.48 1102.24,-1144.89 1111.71,-1094.38"/>
<polygon fill="#757575" stroke="#757575" points="1115.16,-1094.96 1113.47,-1084.51 1108.27,-1093.74 1115.16,-1094.96"/>
</g>
<!-- page&#45;404.js&#45;&gt;header.js -->
<g id="edge81" class="edge"><title>page&#45;404.js&#45;&gt;header.js</title>
<path fill="none" stroke="#757575" d="M635.309,-1140.3C685.895,-1125.58 771.129,-1100.77 823.415,-1085.56"/>
<polygon fill="#757575" stroke="#757575" points="824.472,-1088.89 833.096,-1082.74 822.516,-1082.17 824.472,-1088.89"/>
</g>
<!-- page&#45;404.js&#45;&gt;nav.js -->
<g id="edge82" class="edge"><title>page&#45;404.js&#45;&gt;nav.js</title>
<path fill="none" stroke="#757575" d="M637.719,-1158.43C691.636,-1165.88 782.143,-1178.39 832.378,-1185.34"/>
<polygon fill="#757575" stroke="#757575" points="832.073,-1188.83 842.458,-1186.73 833.032,-1181.89 832.073,-1188.83"/>
</g>
<!-- register.js&#45;&gt;credentials.js -->
<g id="edge83" class="edge"><title>register.js&#45;&gt;credentials.js</title>
<path fill="none" stroke="#757575" d="M630.991,-1469.15C656.674,-1469.04 689.891,-1473.41 710.971,-1493.36 761.396,-1541.08 692.516,-1602.3 746.971,-1645.36 826.731,-1708.44 1129.94,-1693.96 1204.08,-1624.36 1276.8,-1556.09 1286.45,-1223.25 1287.73,-1133.62"/>
<polygon fill="#757575" stroke="#757575" points="1291.24,-1133.54 1287.86,-1123.5 1284.24,-1133.46 1291.24,-1133.54"/>
</g>
<!-- register.js&#45;&gt;header.js -->
<g id="edge84" class="edge"><title>register.js&#45;&gt;header.js</title>
<path fill="none" stroke="#757575" d="M630.822,-1476.23C656.937,-1476.76 690.76,-1472.62 710.971,-1451.36 798.032,-1359.79 685.006,-1279.48 746.971,-1169.36 767.245,-1133.34 806.762,-1105.73 835.292,-1089.35"/>
<polygon fill="#757575" stroke="#757575" points="837.097,-1092.35 844.13,-1084.43 833.691,-1086.23 837.097,-1092.35"/>
</g>
<!-- register.js&#45;&gt;nav.js -->
<g id="edge85" class="edge"><title>register.js&#45;&gt;nav.js</title>
<path fill="none" stroke="#757575" d="M630.959,-1476.1C656.968,-1476.53 690.6,-1472.32 710.971,-1451.36 786.143,-1374.01 671.541,-1288.46 746.971,-1211.36 768.759,-1189.09 805.016,-1185.33 832.315,-1186.25"/>
<polygon fill="#757575" stroke="#757575" points="832.478,-1189.76 842.658,-1186.83 832.869,-1182.77 832.478,-1189.76"/>
</g>
<!-- register.js&#45;&gt;request.js -->
<g id="edge86" class="edge"><title>register.js&#45;&gt;request.js</title>
<path fill="none" stroke="#757575" d="M630.929,-1473.24C708.151,-1473.04 887.757,-1461.73 992.528,-1367.36 1076.6,-1291.65 1104.64,-1149.34 1112.57,-1094.6"/>
<polygon fill="#757575" stroke="#757575" points="1116.05,-1094.96 1113.93,-1084.58 1109.11,-1094.02 1116.05,-1094.96"/>
</g>
<!-- scenario&#45;details.js&#45;&gt;credentials.js -->
<g id="edge106" class="edge"><title>scenario&#45;details.js&#45;&gt;credentials.js</title>
<path fill="none" stroke="#757575" d="M656.92,-690.623C674.733,-694.519 693.905,-699.68 710.971,-706.363 728.218,-713.118 729.716,-720.626 746.971,-727.363 851.061,-768.008 888.409,-740.793 992.528,-781.363 1093.87,-820.85 1132.81,-822.205 1204.08,-904.363 1252.72,-960.439 1275.5,-1048.41 1283.9,-1089.21"/>
<polygon fill="#757575" stroke="#757575" points="1280.5,-1090.04 1285.86,-1099.18 1287.37,-1088.7 1280.5,-1090.04"/>
</g>
<!-- scenario&#45;details.js&#45;&gt;header.js -->
<g id="edge107" class="edge"><title>scenario&#45;details.js&#45;&gt;header.js</title>
<path fill="none" stroke="#757575" d="M605.116,-692.634C626.721,-716.432 675.038,-770.873 710.971,-820.363 770.603,-902.493 831.712,-1007.13 856.849,-1051.24"/>
<polygon fill="#757575" stroke="#757575" points="853.94,-1053.2 861.919,-1060.17 860.028,-1049.75 853.94,-1053.2"/>
</g>
<!-- scenario&#45;details.js&#45;&gt;nav.js -->
<g id="edge108" class="edge"><title>scenario&#45;details.js&#45;&gt;nav.js</title>
<path fill="none" stroke="#757575" d="M605.148,-692.677C629.085,-719.558 684.869,-786.461 710.971,-853.363 750.175,-953.846 693.047,-999.95 746.971,-1093.36 767.639,-1129.17 807.079,-1156.81 835.483,-1173.27"/>
<polygon fill="#757575" stroke="#757575" points="833.848,-1176.36 844.28,-1178.21 837.278,-1170.26 833.848,-1176.36"/>
</g>
<!-- scenario&#45;details.js&#45;&gt;request.js -->
<g id="edge109" class="edge"><title>scenario&#45;details.js&#45;&gt;request.js</title>
<path fill="none" stroke="#757575" d="M657.002,-682.3C676.346,-685.829 696.355,-692.873 710.971,-706.363 750.95,-743.264 706.17,-787.373 746.971,-823.363 830.062,-896.656 901.293,-803.497 992.528,-866.363 1059.21,-912.313 1095.44,-1007.37 1109,-1050.37"/>
<polygon fill="#757575" stroke="#757575" points="1105.71,-1051.57 1111.96,-1060.13 1112.4,-1049.54 1105.71,-1051.57"/>
</g>
<!-- scenario&#45;details.js&#45;&gt;utils.js -->
<g id="edge111" class="edge"><title>scenario&#45;details.js&#45;&gt;utils.js</title>
<path fill="none" stroke="#757575" d="M652.887,-692.449C749.977,-710.966 938.057,-740.698 992.528,-705.363 1081.99,-647.331 1106.83,-507.224 1113.24,-452.649"/>
<polygon fill="#757575" stroke="#757575" points="1116.72,-452.959 1114.31,-442.642 1109.76,-452.21 1116.72,-452.959"/>
</g>
<!-- scenario&#45;details.js&#45;&gt;components/pie.js -->
<g id="edge104" class="edge"><title>scenario&#45;details.js&#45;&gt;components/pie.js</title>
<path fill="none" stroke="#757575" d="M657.065,-675.107C675.066,-672.013 694.3,-667.113 710.971,-659.363 769.696,-632.061 824.625,-577.42 851.505,-548.074"/>
<polygon fill="#757575" stroke="#757575" points="854.226,-550.283 858.322,-540.512 849.027,-545.596 854.226,-550.283"/>
</g>
<!-- scenario&#45;details.js&#45;&gt;components/star&#45;rating.js -->
<g id="edge105" class="edge"><title>scenario&#45;details.js&#45;&gt;components/star&#45;rating.js</title>
<path fill="none" stroke="#757575" d="M656.923,-681.281C691.263,-681.78 734.467,-682.409 772.886,-682.968"/>
<polygon fill="#757575" stroke="#757575" points="773.011,-686.47 783.061,-683.116 773.113,-679.471 773.011,-686.47"/>
</g>
<!-- scenario&#45;updater.js -->
<g id="node37" class="node"><title>scenario&#45;updater.js</title>
<path fill="none" stroke="#c6c5fe" d="M928.973,-814.462C928.973,-814.462 810.526,-814.462 810.526,-814.462 806.493,-814.462 802.46,-810.429 802.46,-806.396 802.46,-806.396 802.46,-798.33 802.46,-798.33 802.46,-794.297 806.493,-790.264 810.526,-790.264 810.526,-790.264 928.973,-790.264 928.973,-790.264 933.006,-790.264 937.039,-794.297 937.039,-798.33 937.039,-798.33 937.039,-806.396 937.039,-806.396 937.039,-810.429 933.006,-814.462 928.973,-814.462"/>
<text text-anchor="middle" x="869.75" y="-799.212" font-family="Arial" font-size="14.00" fill="#c6c5fe">scenario&#45;updater.js</text>
</g>
<!-- scenario&#45;details.js&#45;&gt;scenario&#45;updater.js -->
<g id="edge110" class="edge"><title>scenario&#45;details.js&#45;&gt;scenario&#45;updater.js</title>
<path fill="none" stroke="#757575" d="M657.181,-684.172C675.986,-687.865 695.635,-694.531 710.971,-706.363 738.67,-727.733 719.185,-755.106 746.971,-776.363 760.052,-786.371 776.133,-792.725 792.27,-796.713"/>
<polygon fill="#757575" stroke="#757575" points="791.782,-800.189 802.298,-798.902 793.275,-793.35 791.782,-800.189"/>
</g>
<!-- scenario&#45;list.js&#45;&gt;credentials.js -->
<g id="edge115" class="edge"><title>scenario&#45;list.js&#45;&gt;credentials.js</title>
<path fill="none" stroke="#757575" d="M640.888,-626.305C717.129,-609.044 871.377,-583.703 992.528,-625.363 1105.29,-664.137 1138.54,-690.752 1204.08,-790.363 1268.65,-888.499 1283.56,-1034.01 1286.95,-1089.12"/>
<polygon fill="#757575" stroke="#757575" points="1283.46,-1089.38 1287.5,-1099.18 1290.45,-1089 1283.46,-1089.38"/>
</g>
<!-- scenario&#45;list.js&#45;&gt;header.js -->
<g id="edge116" class="edge"><title>scenario&#45;list.js&#45;&gt;header.js</title>
<path fill="none" stroke="#757575" d="M645.132,-635.43C668.038,-636.881 693.703,-642.75 710.971,-659.363 764.748,-711.101 722.403,-752.899 746.971,-823.363 777.763,-911.68 831.994,-1009.42 856.325,-1051.37"/>
<polygon fill="#757575" stroke="#757575" points="853.374,-1053.26 861.441,-1060.12 859.418,-1049.72 853.374,-1053.26"/>
</g>
<!-- scenario&#45;list.js&#45;&gt;nav.js -->
<g id="edge117" class="edge"><title>scenario&#45;list.js&#45;&gt;nav.js</title>
<path fill="none" stroke="#757575" d="M645.263,-634.386C668.628,-635.511 694.64,-641.408 710.971,-659.363 776.087,-730.955 701.386,-1008 746.971,-1093.36 766.329,-1129.61 805.65,-1157.02 834.392,-1173.3"/>
<polygon fill="#757575" stroke="#757575" points="832.862,-1176.45 843.313,-1178.19 836.228,-1170.32 832.862,-1176.45"/>
</g>
<!-- scenario&#45;list.js&#45;&gt;request.js -->
<g id="edge118" class="edge"><title>scenario&#45;list.js&#45;&gt;request.js</title>
<path fill="none" stroke="#757575" d="M645.254,-634.578C740.652,-628.658 940.178,-621.812 992.528,-663.363 1055.49,-713.333 1099.87,-972.083 1111.98,-1050.08"/>
<polygon fill="#757575" stroke="#757575" points="1108.56,-1050.88 1113.53,-1060.23 1115.48,-1049.82 1108.56,-1050.88"/>
</g>
<!-- scenario&#45;list.js&#45;&gt;utils.js -->
<g id="edge120" class="edge"><title>scenario&#45;list.js&#45;&gt;utils.js</title>
<path fill="none" stroke="#757575" d="M629.726,-626.271C660.55,-616.198 706.323,-601.992 746.971,-592.363 854.784,-566.823 893.824,-599.697 992.528,-549.363 1039.3,-525.513 1080.04,-477.82 1100.77,-450.612"/>
<polygon fill="#757575" stroke="#757575" points="1103.6,-452.663 1106.77,-442.554 1097.99,-448.479 1103.6,-452.663"/>
</g>
<!-- scenario&#45;list.js&#45;&gt;components/filters.js -->
<g id="edge112" class="edge"><title>scenario&#45;list.js&#45;&gt;components/filters.js</title>
<path fill="none" stroke="#757575" d="M600.404,-626.273C619.406,-590.839 675.47,-483.84 710.971,-390.363 731.194,-337.114 722.244,-318.676 746.971,-267.363 775.974,-207.176 825.243,-145.177 851.336,-114.328"/>
<polygon fill="#757575" stroke="#757575" points="854.207,-116.356 858.045,-106.48 848.887,-111.807 854.207,-116.356"/>
</g>
<!-- scenario&#45;list.js&#45;&gt;components/pie.js -->
<g id="edge113" class="edge"><title>scenario&#45;list.js&#45;&gt;components/pie.js</title>
<path fill="none" stroke="#757575" d="M611.877,-626.186C639.681,-607.94 695.25,-573.599 746.971,-554.363 762.241,-548.684 779.073,-544.095 795.225,-540.447"/>
<polygon fill="#757575" stroke="#757575" points="796.14,-543.831 805.174,-538.296 794.66,-536.989 796.14,-543.831"/>
</g>
<!-- scenario&#45;list.js&#45;&gt;components/star&#45;rating.js -->
<g id="edge114" class="edge"><title>scenario&#45;list.js&#45;&gt;components/star&#45;rating.js</title>
<path fill="none" stroke="#757575" d="M645.24,-646.961C684.981,-653.611 740.784,-662.949 786.689,-670.631"/>
<polygon fill="#757575" stroke="#757575" points="786.183,-674.095 796.623,-672.294 787.338,-667.191 786.183,-674.095"/>
</g>
<!-- scenario&#45;list.js&#45;&gt;scenario&#45;updater.js -->
<g id="edge119" class="edge"><title>scenario&#45;list.js&#45;&gt;scenario&#45;updater.js</title>
<path fill="none" stroke="#757575" d="M645.107,-639.557C666.703,-642.014 691.329,-647.534 710.971,-659.363 733.21,-672.757 728.692,-686.927 746.971,-705.363 777.102,-735.754 816.545,-765.657 842.256,-784.05"/>
<polygon fill="#757575" stroke="#757575" points="840.556,-787.135 850.739,-790.058 844.601,-781.423 840.556,-787.135"/>
</g>
<!-- stats.js&#45;&gt;header.js -->
<g id="edge122" class="edge"><title>stats.js&#45;&gt;header.js</title>
<path fill="none" stroke="#757575" d="M622.498,-1038.32C670.137,-1044.91 766.051,-1058.17 823.099,-1066.05"/>
<polygon fill="#757575" stroke="#757575" points="822.893,-1069.56 833.278,-1067.46 823.852,-1062.62 822.893,-1069.56"/>
</g>
<!-- stats.js&#45;&gt;nav.js -->
<g id="edge123" class="edge"><title>stats.js&#45;&gt;nav.js</title>
<path fill="none" stroke="#757575" d="M615.428,-1046.6C664.105,-1074.23 782.586,-1141.47 838.539,-1173.22"/>
<polygon fill="#757575" stroke="#757575" points="836.855,-1176.29 847.279,-1178.18 840.31,-1170.2 836.855,-1176.29"/>
</g>
<!-- stats.js&#45;&gt;request.js -->
<g id="edge124" class="edge"><title>stats.js&#45;&gt;request.js</title>
<path fill="none" stroke="#757575" d="M622.471,-1034.34C688.093,-1034.56 854.409,-1036.67 992.528,-1051.36 1017.52,-1054.02 1045.12,-1058.59 1067.81,-1062.79"/>
<polygon fill="#757575" stroke="#757575" points="1067.39,-1066.28 1077.86,-1064.69 1068.68,-1059.4 1067.39,-1066.28"/>
</g>
<!-- scenario&#45;updater.js&#45;&gt;request.js -->
<g id="edge121" class="edge"><title>scenario&#45;updater.js&#45;&gt;request.js</title>
<path fill="none" stroke="#757575" d="M936.951,-805.678C956.411,-809.358 976.7,-816.142 992.528,-828.363 1067.22,-886.034 1099.98,-1001.48 1110.86,-1050.04"/>
<polygon fill="#757575" stroke="#757575" points="1107.5,-1051.06 1113.02,-1060.11 1114.35,-1049.6 1107.5,-1051.06"/>
</g>
</g>
</svg>
