<?xml version="1.0" encoding="UTF-8" standalone="no"?>
<!DOCTYPE svg PUBLIC "-//W3C//DTD SVG 1.1//EN"
 "http://www.w3.org/Graphics/SVG/1.1/DTD/svg11.dtd">
<!-- Generated by graphviz version 2.38.0 (20140413.2041)
 -->
<!-- Title: G Pages: 1 -->
<svg width="1299pt" height="1201pt"
 viewBox="0.00 0.00 1298.62 1201.12" xmlns="http://www.w3.org/2000/svg" xmlns:xlink="http://www.w3.org/1999/xlink">
<g id="graph0" class="graph" transform="scale(1 1) rotate(0) translate(21.6 1179.52)">
<title>G</title>
<polygon fill="#111111" stroke="none" points="-21.6,21.6 -21.6,-1179.52 1277.02,-1179.52 1277.02,21.6 -21.6,21.6"/>
<!-- about.js -->
<g id="node1" class="node"><title>about.js</title>
<path fill="none" stroke="#c6c5fe" d="M285.344,-506.02C285.344,-506.02 236.407,-506.02 236.407,-506.02 232.374,-506.02 228.341,-501.987 228.341,-497.954 228.341,-497.954 228.341,-489.888 228.341,-489.888 228.341,-485.856 232.374,-481.823 236.407,-481.823 236.407,-481.823 285.344,-481.823 285.344,-481.823 289.377,-481.823 293.41,-485.856 293.41,-489.888 293.41,-489.888 293.41,-497.954 293.41,-497.954 293.41,-501.987 289.377,-506.02 285.344,-506.02"/>
<text text-anchor="middle" x="260.875" y="-490.771" font-family="Arial" font-size="14.00" fill="#c6c5fe">about.js</text>
</g>
<!-- header.js -->
<g id="node2" class="node"><title>header.js</title>
<path fill="none" stroke="#cfffac" d="M758.863,-544.02C758.863,-544.02 702.354,-544.02 702.354,-544.02 698.321,-544.02 694.288,-539.987 694.288,-535.954 694.288,-535.954 694.288,-527.888 694.288,-527.888 694.288,-523.856 698.321,-519.823 702.354,-519.823 702.354,-519.823 758.863,-519.823 758.863,-519.823 762.896,-519.823 766.929,-523.856 766.929,-527.888 766.929,-527.888 766.929,-535.954 766.929,-535.954 766.929,-539.987 762.896,-544.02 758.863,-544.02"/>
<text text-anchor="middle" x="730.608" y="-528.771" font-family="Arial" font-size="14.00" fill="#cfffac">header.js</text>
</g>
<!-- about.js&#45;&gt;header.js -->
<g id="edge1" class="edge"><title>about.js&#45;&gt;header.js</title>
<path fill="none" stroke="#757575" d="M293.628,-493.822C351.662,-493.946 478.68,-495.633 585.054,-506.921 618.437,-510.464 655.767,-516.987 684.128,-522.481"/>
<polygon fill="#757575" stroke="#757575" points="683.659,-525.956 694.147,-524.451 685.01,-519.087 683.659,-525.956"/>
</g>
<!-- nav.js -->
<g id="node3" class="node"><title>nav.js</title>
<path fill="none" stroke="#c6c5fe" d="M749.543,-666.02C749.543,-666.02 711.674,-666.02 711.674,-666.02 707.641,-666.02 703.608,-661.987 703.608,-657.954 703.608,-657.954 703.608,-649.888 703.608,-649.888 703.608,-645.856 707.641,-641.823 711.674,-641.823 711.674,-641.823 749.543,-641.823 749.543,-641.823 753.575,-641.823 757.608,-645.856 757.608,-649.888 757.608,-649.888 757.608,-657.954 757.608,-657.954 757.608,-661.987 753.575,-666.02 749.543,-666.02"/>
<text text-anchor="middle" x="730.608" y="-650.771" font-family="Arial" font-size="14.00" fill="#c6c5fe">nav.js</text>
</g>
<!-- about.js&#45;&gt;nav.js -->
<g id="edge2" class="edge"><title>about.js&#45;&gt;nav.js</title>
<path fill="none" stroke="#757575" d="M262.592,-505.986C265.566,-543.818 280.425,-660.424 351.951,-707.921 438.256,-765.233 487.06,-741.544 585.054,-707.921 604.226,-701.343 602.785,-688.703 621.054,-679.921 643.869,-668.955 671.664,-662.41 693.417,-658.631"/>
<polygon fill="#757575" stroke="#757575" points="694.25,-662.041 703.562,-656.99 693.132,-655.131 694.25,-662.041"/>
</g>
<!-- request.js -->
<g id="node4" class="node"><title>request.js</title>
<path fill="none" stroke="#c6c5fe" d="M1029.07,-584.02C1029.07,-584.02 968.811,-584.02 968.811,-584.02 964.778,-584.02 960.745,-579.987 960.745,-575.954 960.745,-575.954 960.745,-567.888 960.745,-567.888 960.745,-563.856 964.778,-559.823 968.811,-559.823 968.811,-559.823 1029.07,-559.823 1029.07,-559.823 1033.11,-559.823 1037.14,-563.856 1037.14,-567.888 1037.14,-567.888 1037.14,-575.954 1037.14,-575.954 1037.14,-579.987 1033.11,-584.02 1029.07,-584.02"/>
<text text-anchor="middle" x="998.942" y="-568.771" font-family="Arial" font-size="14.00" fill="#c6c5fe">request.js</text>
</g>
<!-- about.js&#45;&gt;request.js -->
<g id="edge3" class="edge"><title>about.js&#45;&gt;request.js</title>
<path fill="none" stroke="#757575" d="M293.509,-485.078C382.171,-461.825 639.691,-404.833 840.163,-465.921 895.901,-482.906 949.81,-526.888 977.897,-552.546"/>
<polygon fill="#757575" stroke="#757575" points="975.733,-555.312 985.437,-559.564 980.503,-550.189 975.733,-555.312"/>
</g>
<!-- nav.js&#45;&gt;request.js -->
<g id="edge50" class="edge"><title>nav.js&#45;&gt;request.js</title>
<path fill="none" stroke="#757575" d="M757.77,-653.478C780.815,-652.053 814.596,-647.375 840.163,-632.921 860.984,-621.151 855.224,-604.48 876.163,-592.921 898.742,-580.458 926.968,-575.069 950.559,-572.859"/>
<polygon fill="#757575" stroke="#757575" points="950.995,-576.336 960.695,-572.074 950.454,-569.357 950.995,-576.336"/>
</g>
<!-- credentials.js -->
<g id="node9" class="node"><title>credentials.js</title>
<path fill="none" stroke="#cfffac" d="M1247.21,-666.02C1247.21,-666.02 1165.93,-666.02 1165.93,-666.02 1161.9,-666.02 1157.87,-661.987 1157.87,-657.954 1157.87,-657.954 1157.87,-649.888 1157.87,-649.888 1157.87,-645.856 1161.9,-641.823 1165.93,-641.823 1165.93,-641.823 1247.21,-641.823 1247.21,-641.823 1251.24,-641.823 1255.28,-645.856 1255.28,-649.888 1255.28,-649.888 1255.28,-657.954 1255.28,-657.954 1255.28,-661.987 1251.24,-666.02 1247.21,-666.02"/>
<text text-anchor="middle" x="1206.57" y="-650.771" font-family="Arial" font-size="14.00" fill="#cfffac">credentials.js</text>
</g>
<!-- nav.js&#45;&gt;credentials.js -->
<g id="edge49" class="edge"><title>nav.js&#45;&gt;credentials.js</title>
<path fill="none" stroke="#757575" d="M757.766,-653.921C831.783,-653.921 1044.02,-653.921 1147.48,-653.921"/>
<polygon fill="#757575" stroke="#757575" points="1147.74,-657.422 1157.74,-653.921 1147.74,-650.422 1147.74,-657.422"/>
</g>
<!-- components/typeahead.js -->
<g id="node13" class="node"><title>components/typeahead.js</title>
<path fill="none" stroke="#cfffac" d="M1078.43,-626.02C1078.43,-626.02 919.456,-626.02 919.456,-626.02 915.423,-626.02 911.391,-621.987 911.391,-617.954 911.391,-617.954 911.391,-609.888 911.391,-609.888 911.391,-605.856 915.423,-601.823 919.456,-601.823 919.456,-601.823 1078.43,-601.823 1078.43,-601.823 1082.46,-601.823 1086.49,-605.856 1086.49,-609.888 1086.49,-609.888 1086.49,-617.954 1086.49,-617.954 1086.49,-621.987 1082.46,-626.02 1078.43,-626.02"/>
<text text-anchor="middle" x="998.942" y="-610.771" font-family="Arial" font-size="14.00" fill="#cfffac">components/typeahead.js</text>
</g>
<!-- nav.js&#45;&gt;components/typeahead.js -->
<g id="edge48" class="edge"><title>nav.js&#45;&gt;components/typeahead.js</title>
<path fill="none" stroke="#757575" d="M757.631,-650.013C792.123,-644.833 854.767,-635.424 907.449,-627.512"/>
<polygon fill="#757575" stroke="#757575" points="908.131,-630.949 917.5,-626.003 907.091,-624.027 908.131,-630.949"/>
</g>
<!-- request.js&#45;&gt;credentials.js -->
<g id="edge57" class="edge"><title>request.js&#45;&gt;credentials.js</title>
<path fill="none" stroke="#757575" d="M1037.14,-573.925C1061.91,-576.308 1094.75,-581.521 1121.72,-592.921 1145.58,-603.007 1169.12,-621.031 1185.15,-634.88"/>
<polygon fill="#757575" stroke="#757575" points="1183.01,-637.66 1192.81,-641.678 1187.65,-632.423 1183.01,-637.66"/>
</g>
<!-- account.js -->
<g id="node5" class="node"><title>account.js</title>
<path fill="none" stroke="#c6c5fe" d="M499.971,-961.02C499.971,-961.02 437.034,-961.02 437.034,-961.02 433.001,-961.02 428.968,-956.987 428.968,-952.954 428.968,-952.954 428.968,-944.888 428.968,-944.888 428.968,-940.856 433.001,-936.823 437.034,-936.823 437.034,-936.823 499.971,-936.823 499.971,-936.823 504.004,-936.823 508.037,-940.856 508.037,-944.888 508.037,-944.888 508.037,-952.954 508.037,-952.954 508.037,-956.987 504.004,-961.02 499.971,-961.02"/>
<text text-anchor="middle" x="468.502" y="-945.771" font-family="Arial" font-size="14.00" fill="#c6c5fe">account.js</text>
</g>
<!-- account.js&#45;&gt;header.js -->
<g id="edge8" class="edge"><title>account.js&#45;&gt;header.js</title>
<path fill="none" stroke="#757575" d="M504.321,-936.794C531.002,-925.582 566.322,-906.186 585.054,-876.921 654.122,-769.02 548.812,-696.725 621.054,-590.921 636.029,-568.989 661.911,-554.47 684.647,-545.325"/>
<polygon fill="#757575" stroke="#757575" points="686.042,-548.54 694.157,-541.729 683.566,-541.992 686.042,-548.54"/>
</g>
<!-- account.js&#45;&gt;nav.js -->
<g id="edge9" class="edge"><title>account.js&#45;&gt;nav.js</title>
<path fill="none" stroke="#757575" d="M495.625,-936.851C520.639,-924.384 558.411,-903.092 585.054,-876.921 618.38,-844.186 689.432,-723.707 717.674,-674.78"/>
<polygon fill="#757575" stroke="#757575" points="720.774,-676.409 722.727,-665.996 714.707,-672.918 720.774,-676.409"/>
</g>
<!-- account.js&#45;&gt;request.js -->
<g id="edge10" class="edge"><title>account.js&#45;&gt;request.js</title>
<path fill="none" stroke="#757575" d="M508.117,-945.596C584.554,-936.816 755.082,-905.888 840.163,-800.921 899.239,-728.038 809.803,-659.241 876.163,-592.921 895.302,-573.794 925.141,-568.416 950.492,-567.883"/>
<polygon fill="#757575" stroke="#757575" points="950.664,-571.383 960.675,-567.915 950.686,-564.383 950.664,-571.383"/>
</g>
<!-- components/date&#45;range&#45;picker.js -->
<g id="node6" class="node"><title>components/date&#45;range&#45;picker.js</title>
<path fill="none" stroke="#cfffac" d="M832.152,-1092.02C832.152,-1092.02 629.065,-1092.02 629.065,-1092.02 625.032,-1092.02 620.999,-1087.99 620.999,-1083.95 620.999,-1083.95 620.999,-1075.89 620.999,-1075.89 620.999,-1071.86 625.032,-1067.82 629.065,-1067.82 629.065,-1067.82 832.152,-1067.82 832.152,-1067.82 836.185,-1067.82 840.218,-1071.86 840.218,-1075.89 840.218,-1075.89 840.218,-1083.95 840.218,-1083.95 840.218,-1087.99 836.185,-1092.02 832.152,-1092.02"/>
<text text-anchor="middle" x="730.608" y="-1076.77" font-family="Arial" font-size="14.00" fill="#cfffac">components/date&#45;range&#45;picker.js</text>
</g>
<!-- account.js&#45;&gt;components/date&#45;range&#45;picker.js -->
<g id="edge4" class="edge"><title>account.js&#45;&gt;components/date&#45;range&#45;picker.js</title>
<path fill="none" stroke="#757575" d="M483.457,-961.31C508.946,-983.282 565.535,-1029.1 621.054,-1053.92 630.874,-1058.31 641.539,-1062.02 652.221,-1065.14"/>
<polygon fill="#757575" stroke="#757575" points="651.441,-1068.55 662.012,-1067.84 653.301,-1061.81 651.441,-1068.55"/>
</g>
<!-- components/figure&#45;history&#45;list.js -->
<g id="node7" class="node"><title>components/figure&#45;history&#45;list.js</title>
<path fill="none" stroke="#c6c5fe" d="M828.89,-974.02C828.89,-974.02 632.327,-974.02 632.327,-974.02 628.294,-974.02 624.261,-969.987 624.261,-965.954 624.261,-965.954 624.261,-957.888 624.261,-957.888 624.261,-953.856 628.294,-949.823 632.327,-949.823 632.327,-949.823 828.89,-949.823 828.89,-949.823 832.923,-949.823 836.956,-953.856 836.956,-957.888 836.956,-957.888 836.956,-965.954 836.956,-965.954 836.956,-969.987 832.923,-974.02 828.89,-974.02"/>
<text text-anchor="middle" x="730.608" y="-958.771" font-family="Arial" font-size="14.00" fill="#c6c5fe">components/figure&#45;history&#45;list.js</text>
</g>
<!-- account.js&#45;&gt;components/figure&#45;history&#45;list.js -->
<g id="edge5" class="edge"><title>account.js&#45;&gt;components/figure&#45;history&#45;list.js</title>
<path fill="none" stroke="#757575" d="M508.162,-950.854C536.287,-952.259 575.944,-954.241 613.942,-956.14"/>
<polygon fill="#757575" stroke="#757575" points="613.917,-959.644 624.08,-956.647 614.267,-952.652 613.917,-959.644"/>
</g>
<!-- components/figure&#45;inventory&#45;editor.js -->
<g id="node8" class="node"><title>components/figure&#45;inventory&#45;editor.js</title>
<path fill="none" stroke="#cfffac" d="M1113.43,-1016.02C1113.43,-1016.02 884.45,-1016.02 884.45,-1016.02 880.417,-1016.02 876.384,-1011.99 876.384,-1007.95 876.384,-1007.95 876.384,-999.888 876.384,-999.888 876.384,-995.856 880.417,-991.823 884.45,-991.823 884.45,-991.823 1113.43,-991.823 1113.43,-991.823 1117.47,-991.823 1121.5,-995.856 1121.5,-999.888 1121.5,-999.888 1121.5,-1007.95 1121.5,-1007.95 1121.5,-1011.99 1117.47,-1016.02 1113.43,-1016.02"/>
<text text-anchor="middle" x="998.942" y="-1000.77" font-family="Arial" font-size="14.00" fill="#cfffac">components/figure&#45;inventory&#45;editor.js</text>
</g>
<!-- account.js&#45;&gt;components/figure&#45;inventory&#45;editor.js -->
<g id="edge6" class="edge"><title>account.js&#45;&gt;components/figure&#45;inventory&#45;editor.js</title>
<path fill="none" stroke="#757575" d="M508.114,-959.436C538.551,-967.273 582.194,-977.517 621.054,-982.921 701.955,-994.172 793.417,-999.445 865.98,-1001.89"/>
<polygon fill="#757575" stroke="#757575" points="865.982,-1005.4 876.09,-1002.22 866.209,-998.4 865.982,-1005.4"/>
</g>
<!-- account.js&#45;&gt;credentials.js -->
<g id="edge7" class="edge"><title>account.js&#45;&gt;credentials.js</title>
<path fill="none" stroke="#757575" d="M495.394,-960.998C525.05,-974.231 575.437,-994.908 621.054,-1004.92 729.812,-1028.8 1034.74,-1094.44 1121.72,-1024.92 1177.05,-980.701 1198.53,-750.071 1204.04,-676.499"/>
<polygon fill="#757575" stroke="#757575" points="1207.56,-676.318 1204.79,-666.093 1200.58,-675.815 1207.56,-676.318"/>
</g>
<!-- components/figure&#45;history&#45;list.js&#45;&gt;request.js -->
<g id="edge26" class="edge"><title>components/figure&#45;history&#45;list.js&#45;&gt;request.js</title>
<path fill="none" stroke="#757575" d="M751.115,-949.835C776.331,-933.051 819.455,-900.162 840.163,-859.921 894.954,-753.452 793.063,-679.132 876.163,-592.921 895.007,-573.372 924.984,-568.02 950.479,-567.605"/>
<polygon fill="#757575" stroke="#757575" points="950.692,-571.107 960.721,-567.691 950.751,-564.107 950.692,-571.107"/>
</g>
<!-- components/figure&#45;history&#45;list.js&#45;&gt;components/figure&#45;inventory&#45;editor.js -->
<g id="edge24" class="edge"><title>components/figure&#45;history&#45;list.js&#45;&gt;components/figure&#45;inventory&#45;editor.js</title>
<path fill="none" stroke="#757575" d="M808.286,-974.013C840.456,-979.086 878.026,-985.011 911.201,-990.243"/>
<polygon fill="#757575" stroke="#757575" points="910.922,-993.742 921.345,-991.842 912.012,-986.827 910.922,-993.742"/>
</g>
<!-- constants.js -->
<g id="node15" class="node"><title>constants.js</title>
<path fill="none" stroke="#cfffac" d="M1035.8,-974.02C1035.8,-974.02 962.084,-974.02 962.084,-974.02 958.051,-974.02 954.018,-969.987 954.018,-965.954 954.018,-965.954 954.018,-957.888 954.018,-957.888 954.018,-953.856 958.051,-949.823 962.084,-949.823 962.084,-949.823 1035.8,-949.823 1035.8,-949.823 1039.83,-949.823 1043.87,-953.856 1043.87,-957.888 1043.87,-957.888 1043.87,-965.954 1043.87,-965.954 1043.87,-969.987 1039.83,-974.02 1035.8,-974.02"/>
<text text-anchor="middle" x="998.942" y="-958.771" font-family="Arial" font-size="14.00" fill="#cfffac">constants.js</text>
</g>
<!-- components/figure&#45;history&#45;list.js&#45;&gt;constants.js -->
<g id="edge25" class="edge"><title>components/figure&#45;history&#45;list.js&#45;&gt;constants.js</title>
<path fill="none" stroke="#757575" d="M837.253,-961.921C873.788,-961.921 913.213,-961.921 943.868,-961.921"/>
<polygon fill="#757575" stroke="#757575" points="943.911,-965.422 953.911,-961.921 943.911,-958.422 943.911,-965.422"/>
</g>
<!-- admin&#45;components/faction&#45;edit.js -->
<g id="node10" class="node"><title>admin&#45;components/faction&#45;edit.js</title>
<path fill="none" stroke="#c6c5fe" d="M571.371,-666.02C571.371,-666.02 365.634,-666.02 365.634,-666.02 361.601,-666.02 357.568,-661.987 357.568,-657.954 357.568,-657.954 357.568,-649.888 357.568,-649.888 357.568,-645.856 361.601,-641.823 365.634,-641.823 365.634,-641.823 571.371,-641.823 571.371,-641.823 575.404,-641.823 579.436,-645.856 579.436,-649.888 579.436,-649.888 579.436,-657.954 579.436,-657.954 579.436,-661.987 575.404,-666.02 571.371,-666.02"/>
<text text-anchor="middle" x="468.502" y="-650.771" font-family="Arial" font-size="14.00" fill="#c6c5fe">admin&#45;components/faction&#45;edit.js</text>
</g>
<!-- admin&#45;components/faction&#45;edit.js&#45;&gt;header.js -->
<g id="edge12" class="edge"><title>admin&#45;components/faction&#45;edit.js&#45;&gt;header.js</title>
<path fill="none" stroke="#757575" d="M570.406,-641.858C575.585,-639.339 580.514,-636.383 585.054,-632.921 614.454,-610.5 592.284,-581.147 621.054,-557.921 638.742,-543.642 663.013,-536.989 684.12,-533.973"/>
<polygon fill="#757575" stroke="#757575" points="684.672,-537.432 694.184,-532.766 683.839,-530.481 684.672,-537.432"/>
</g>
<!-- admin&#45;components/faction&#45;edit.js&#45;&gt;nav.js -->
<g id="edge13" class="edge"><title>admin&#45;components/faction&#45;edit.js&#45;&gt;nav.js</title>
<path fill="none" stroke="#757575" d="M579.434,-653.921C620.184,-653.921 663.635,-653.921 693.258,-653.921"/>
<polygon fill="#757575" stroke="#757575" points="693.516,-657.422 703.516,-653.921 693.516,-650.422 693.516,-657.422"/>
</g>
<!-- admin&#45;components/faction&#45;edit.js&#45;&gt;request.js -->
<g id="edge14" class="edge"><title>admin&#45;components/faction&#45;edit.js&#45;&gt;request.js</title>
<path fill="none" stroke="#757575" d="M565.621,-641.826C572.397,-639.362 578.953,-636.423 585.054,-632.921 606.378,-620.685 598.983,-601.754 621.054,-590.921 677.64,-563.148 862.103,-566.392 950.229,-569.716"/>
<polygon fill="#757575" stroke="#757575" points="950.353,-573.224 960.483,-570.12 950.628,-566.229 950.353,-573.224"/>
</g>
<!-- admin&#45;components/role&#45;editor.js -->
<g id="node11" class="node"><title>admin&#45;components/role&#45;editor.js</title>
<path fill="none" stroke="#c6c5fe" d="M830.249,-624.02C830.249,-624.02 630.968,-624.02 630.968,-624.02 626.935,-624.02 622.902,-619.987 622.902,-615.954 622.902,-615.954 622.902,-607.888 622.902,-607.888 622.902,-603.856 626.935,-599.823 630.968,-599.823 630.968,-599.823 830.249,-599.823 830.249,-599.823 834.282,-599.823 838.315,-603.856 838.315,-607.888 838.315,-607.888 838.315,-615.954 838.315,-615.954 838.315,-619.987 834.282,-624.02 830.249,-624.02"/>
<text text-anchor="middle" x="730.608" y="-608.771" font-family="Arial" font-size="14.00" fill="#c6c5fe">admin&#45;components/role&#45;editor.js</text>
</g>
<!-- admin&#45;components/faction&#45;edit.js&#45;&gt;admin&#45;components/role&#45;editor.js -->
<g id="edge11" class="edge"><title>admin&#45;components/faction&#45;edit.js&#45;&gt;admin&#45;components/role&#45;editor.js</title>
<path fill="none" stroke="#757575" d="M544.387,-641.83C575.805,-636.756 612.496,-630.832 644.896,-625.6"/>
<polygon fill="#757575" stroke="#757575" points="645.488,-629.05 654.802,-624.001 644.372,-622.14 645.488,-629.05"/>
</g>
<!-- admin&#45;components/role&#45;editor.js&#45;&gt;request.js -->
<g id="edge20" class="edge"><title>admin&#45;components/role&#45;editor.js&#45;&gt;request.js</title>
<path fill="none" stroke="#757575" d="M811.878,-599.866C856.959,-593.095 911.697,-584.874 950.091,-579.108"/>
<polygon fill="#757575" stroke="#757575" points="951.096,-582.496 960.465,-577.55 950.056,-575.574 951.096,-582.496"/>
</g>
<!-- admin&#45;components/role&#45;editor.js&#45;&gt;components/typeahead.js -->
<g id="edge19" class="edge"><title>admin&#45;components/role&#45;editor.js&#45;&gt;components/typeahead.js</title>
<path fill="none" stroke="#757575" d="M838.402,-612.723C859.077,-612.879 880.635,-613.041 900.975,-613.193"/>
<polygon fill="#757575" stroke="#757575" points="901.143,-616.695 911.169,-613.27 901.196,-609.695 901.143,-616.695"/>
</g>
<!-- admin&#45;components/figure&#45;edit.js -->
<g id="node12" class="node"><title>admin&#45;components/figure&#45;edit.js</title>
<path fill="none" stroke="#c6c5fe" d="M568.143,-826.02C568.143,-826.02 368.862,-826.02 368.862,-826.02 364.829,-826.02 360.796,-821.987 360.796,-817.954 360.796,-817.954 360.796,-809.888 360.796,-809.888 360.796,-805.856 364.829,-801.823 368.862,-801.823 368.862,-801.823 568.143,-801.823 568.143,-801.823 572.176,-801.823 576.209,-805.856 576.209,-809.888 576.209,-809.888 576.209,-817.954 576.209,-817.954 576.209,-821.987 572.176,-826.02 568.143,-826.02"/>
<text text-anchor="middle" x="468.502" y="-810.771" font-family="Arial" font-size="14.00" fill="#c6c5fe">admin&#45;components/figure&#45;edit.js</text>
</g>
<!-- admin&#45;components/figure&#45;edit.js&#45;&gt;header.js -->
<g id="edge16" class="edge"><title>admin&#45;components/figure&#45;edit.js&#45;&gt;header.js</title>
<path fill="none" stroke="#757575" d="M573.942,-801.818C577.936,-799.263 581.671,-796.315 585.054,-792.921 649.426,-728.329 567.722,-664.893 621.054,-590.921 636.53,-569.455 662.303,-554.976 684.852,-545.735"/>
<polygon fill="#757575" stroke="#757575" points="686.214,-548.961 694.279,-542.091 683.69,-542.432 686.214,-548.961"/>
</g>
<!-- admin&#45;components/figure&#45;edit.js&#45;&gt;nav.js -->
<g id="edge17" class="edge"><title>admin&#45;components/figure&#45;edit.js&#45;&gt;nav.js</title>
<path fill="none" stroke="#757575" d="M570.406,-801.858C575.585,-799.339 580.514,-796.383 585.054,-792.921 614.454,-770.5 596.046,-745.156 621.054,-717.921 641.342,-695.827 671.037,-679.041 694.243,-668.215"/>
<polygon fill="#757575" stroke="#757575" points="695.742,-671.378 703.424,-664.081 692.868,-664.995 695.742,-671.378"/>
</g>
<!-- admin&#45;components/figure&#45;edit.js&#45;&gt;request.js -->
<g id="edge18" class="edge"><title>admin&#45;components/figure&#45;edit.js&#45;&gt;request.js</title>
<path fill="none" stroke="#757575" d="M564.19,-801.797C571.441,-799.348 578.485,-796.42 585.054,-792.921 605.304,-782.135 600.952,-766.982 621.054,-755.921 708.233,-707.953 766.656,-776.988 840.163,-709.921 880.354,-673.252 835.315,-628.858 876.163,-592.921 896.177,-575.314 925.45,-569.851 950.28,-568.892"/>
<polygon fill="#757575" stroke="#757575" points="950.664,-572.386 960.61,-568.734 950.557,-565.387 950.664,-572.386"/>
</g>
<!-- admin&#45;components/figure&#45;edit.js&#45;&gt;credentials.js -->
<g id="edge15" class="edge"><title>admin&#45;components/figure&#45;edit.js&#45;&gt;credentials.js</title>
<path fill="none" stroke="#757575" d="M576.219,-806.57C707.74,-795.008 936.538,-766.681 1121.72,-700.921 1142.1,-693.686 1163.33,-681.734 1179.33,-671.694"/>
<polygon fill="#757575" stroke="#757575" points="1181.58,-674.407 1188.1,-666.054 1177.79,-668.52 1181.58,-674.407"/>
</g>
<!-- admin&#45;components/scenario&#45;edit.js -->
<g id="node14" class="node"><title>admin&#45;components/scenario&#45;edit.js</title>
<path fill="none" stroke="#c6c5fe" d="M577.039,-540.02C577.039,-540.02 359.966,-540.02 359.966,-540.02 355.933,-540.02 351.9,-535.987 351.9,-531.954 351.9,-531.954 351.9,-523.888 351.9,-523.888 351.9,-519.856 355.933,-515.823 359.966,-515.823 359.966,-515.823 577.039,-515.823 577.039,-515.823 581.072,-515.823 585.105,-519.856 585.105,-523.888 585.105,-523.888 585.105,-531.954 585.105,-531.954 585.105,-535.987 581.072,-540.02 577.039,-540.02"/>
<text text-anchor="middle" x="468.502" y="-524.771" font-family="Arial" font-size="14.00" fill="#c6c5fe">admin&#45;components/scenario&#45;edit.js</text>
</g>
<!-- admin&#45;components/scenario&#45;edit.js&#45;&gt;header.js -->
<g id="edge21" class="edge"><title>admin&#45;components/scenario&#45;edit.js&#45;&gt;header.js</title>
<path fill="none" stroke="#757575" d="M585.103,-529.699C620.114,-530.238 656.538,-530.798 684.059,-531.221"/>
<polygon fill="#757575" stroke="#757575" points="684.097,-534.722 694.15,-531.376 684.205,-527.723 684.097,-534.722"/>
</g>
<!-- admin&#45;components/scenario&#45;edit.js&#45;&gt;nav.js -->
<g id="edge22" class="edge"><title>admin&#45;components/scenario&#45;edit.js&#45;&gt;nav.js</title>
<path fill="none" stroke="#757575" d="M571.134,-540.034C576.066,-542.55 580.748,-545.491 585.054,-548.921 616.819,-574.235 589.432,-607.429 621.054,-632.921 641.27,-649.22 670.434,-654.157 693.444,-655.189"/>
<polygon fill="#757575" stroke="#757575" points="693.453,-658.69 703.529,-655.415 693.61,-651.692 693.453,-658.69"/>
</g>
<!-- admin&#45;components/scenario&#45;edit.js&#45;&gt;request.js -->
<g id="edge23" class="edge"><title>admin&#45;components/scenario&#45;edit.js&#45;&gt;request.js</title>
<path fill="none" stroke="#757575" d="M502.051,-515.851C532.365,-505.294 579.066,-490.763 621.054,-484.921 717.507,-471.503 745.856,-460.644 840.163,-484.921 891.774,-498.208 944.573,-532.344 974.118,-553.693"/>
<polygon fill="#757575" stroke="#757575" points="972.385,-556.763 982.514,-559.87 976.533,-551.125 972.385,-556.763"/>
</g>
<!-- components/pie.js -->
<g id="node16" class="node"><title>components/pie.js</title>
<path fill="none" stroke="#cfffac" d="M786.883,-274.02C786.883,-274.02 674.333,-274.02 674.333,-274.02 670.3,-274.02 666.267,-269.987 666.267,-265.954 666.267,-265.954 666.267,-257.888 666.267,-257.888 666.267,-253.856 670.3,-249.823 674.333,-249.823 674.333,-249.823 786.883,-249.823 786.883,-249.823 790.916,-249.823 794.949,-253.856 794.949,-257.888 794.949,-257.888 794.949,-265.954 794.949,-265.954 794.949,-269.987 790.916,-274.02 786.883,-274.02"/>
<text text-anchor="middle" x="730.608" y="-258.771" font-family="Arial" font-size="14.00" fill="#cfffac">components/pie.js</text>
</g>
<!-- components/star&#45;rating.js -->
<g id="node17" class="node"><title>components/star&#45;rating.js</title>
<path fill="none" stroke="#cfffac" d="M809.221,-114.02C809.221,-114.02 651.995,-114.02 651.995,-114.02 647.963,-114.02 643.93,-109.987 643.93,-105.954 643.93,-105.954 643.93,-97.8885 643.93,-97.8885 643.93,-93.8556 647.963,-89.8226 651.995,-89.8226 651.995,-89.8226 809.221,-89.8226 809.221,-89.8226 813.254,-89.8226 817.287,-93.8556 817.287,-97.8885 817.287,-97.8885 817.287,-105.954 817.287,-105.954 817.287,-109.987 813.254,-114.02 809.221,-114.02"/>
<text text-anchor="middle" x="730.608" y="-98.7708" font-family="Arial" font-size="14.00" fill="#cfffac">components/star&#45;rating.js</text>
</g>
<!-- figure&#45;details.js -->
<g id="node18" class="node"><title>figure&#45;details.js</title>
<path fill="none" stroke="#c6c5fe" d="M307.961,-462.02C307.961,-462.02 213.79,-462.02 213.79,-462.02 209.757,-462.02 205.724,-457.987 205.724,-453.954 205.724,-453.954 205.724,-445.888 205.724,-445.888 205.724,-441.856 209.757,-437.823 213.79,-437.823 213.79,-437.823 307.961,-437.823 307.961,-437.823 311.994,-437.823 316.027,-441.856 316.027,-445.888 316.027,-445.888 316.027,-453.954 316.027,-453.954 316.027,-457.987 311.994,-462.02 307.961,-462.02"/>
<text text-anchor="middle" x="260.875" y="-446.771" font-family="Arial" font-size="14.00" fill="#c6c5fe">figure&#45;details.js</text>
</g>
<!-- figure&#45;details.js&#45;&gt;header.js -->
<g id="edge32" class="edge"><title>figure&#45;details.js&#45;&gt;header.js</title>
<path fill="none" stroke="#757575" d="M316.056,-453.968C380.603,-459.4 491.47,-470.663 585.054,-489.921 618.828,-496.872 656.187,-507.815 684.464,-516.788"/>
<polygon fill="#757575" stroke="#757575" points="683.475,-520.146 694.067,-519.87 685.615,-513.481 683.475,-520.146"/>
</g>
<!-- figure&#45;details.js&#45;&gt;nav.js -->
<g id="edge33" class="edge"><title>figure&#45;details.js&#45;&gt;nav.js</title>
<path fill="none" stroke="#757575" d="M303.071,-462.075C307.966,-464.967 312.456,-468.532 315.951,-472.921 372.759,-544.258 282.04,-616.368 351.951,-674.921 431.375,-741.442 481.722,-682.388 585.054,-674.921 605.485,-673.445 657.697,-665.469 693.442,-659.785"/>
<polygon fill="#757575" stroke="#757575" points="694.178,-663.212 703.5,-658.177 693.073,-656.299 694.178,-663.212"/>
</g>
<!-- figure&#45;details.js&#45;&gt;request.js -->
<g id="edge34" class="edge"><title>figure&#45;details.js&#45;&gt;request.js</title>
<path fill="none" stroke="#757575" d="M305.79,-437.82C404.935,-412.785 652.12,-363.289 840.163,-433.921 903.065,-457.549 957.308,-518.882 982.661,-551.239"/>
<polygon fill="#757575" stroke="#757575" points="980.165,-553.737 989.028,-559.541 985.72,-549.476 980.165,-553.737"/>
</g>
<!-- figure&#45;details.js&#45;&gt;components/figure&#45;history&#45;list.js -->
<g id="edge27" class="edge"><title>figure&#45;details.js&#45;&gt;components/figure&#45;history&#45;list.js</title>
<path fill="none" stroke="#757575" d="M303.959,-462.123C308.59,-465 312.771,-468.548 315.951,-472.921 368.963,-545.818 292.374,-809.286 351.951,-876.921 422.05,-956.502 481.633,-904.447 585.054,-927.921 612.687,-934.194 643.238,-941.347 669.108,-947.469"/>
<polygon fill="#757575" stroke="#757575" points="668.607,-950.948 679.145,-949.848 670.222,-944.136 668.607,-950.948"/>
</g>
<!-- figure&#45;details.js&#45;&gt;components/figure&#45;inventory&#45;editor.js -->
<g id="edge28" class="edge"><title>figure&#45;details.js&#45;&gt;components/figure&#45;inventory&#45;editor.js</title>
<path fill="none" stroke="#757575" d="M304.027,-462.074C308.648,-464.959 312.807,-468.522 315.951,-472.921 380.334,-563.015 289.881,-878.22 351.951,-969.921 477.881,-1155.97 623.983,-1162.06 840.163,-1100.92 893.951,-1085.71 947.444,-1046.43 976.24,-1022.78"/>
<polygon fill="#757575" stroke="#757575" points="978.596,-1025.37 984.022,-1016.27 974.105,-1020 978.596,-1025.37"/>
</g>
<!-- figure&#45;details.js&#45;&gt;credentials.js -->
<g id="edge30" class="edge"><title>figure&#45;details.js&#45;&gt;credentials.js</title>
<path fill="none" stroke="#757575" d="M262.095,-437.711C263.522,-392.812 274.106,-234.619 351.951,-140.921 437.587,-37.8465 490.698,-35.9902 621.054,-4.92144 665.86,5.75747 1115.76,-4.59251 1121.72,-9.92144 1169.26,-52.4271 1198.26,-522.791 1204.36,-631.564"/>
<polygon fill="#757575" stroke="#757575" points="1200.88,-631.927 1204.93,-641.719 1207.87,-631.541 1200.88,-631.927"/>
</g>
<!-- figure&#45;details.js&#45;&gt;components/pie.js -->
<g id="edge29" class="edge"><title>figure&#45;details.js&#45;&gt;components/pie.js</title>
<path fill="none" stroke="#757575" d="M266.004,-437.476C275.893,-409.806 303.768,-343.244 351.951,-312.921 401.115,-281.981 560.526,-269.491 655.806,-264.697"/>
<polygon fill="#757575" stroke="#757575" points="656.139,-268.186 665.957,-264.204 655.799,-261.194 656.139,-268.186"/>
</g>
<!-- figure&#45;list.js -->
<g id="node19" class="node"><title>figure&#45;list.js</title>
<path fill="none" stroke="#c6c5fe" d="M503.73,-346.02C503.73,-346.02 433.275,-346.02 433.275,-346.02 429.242,-346.02 425.209,-341.987 425.209,-337.954 425.209,-337.954 425.209,-329.888 425.209,-329.888 425.209,-325.856 429.242,-321.823 433.275,-321.823 433.275,-321.823 503.73,-321.823 503.73,-321.823 507.763,-321.823 511.796,-325.856 511.796,-329.888 511.796,-329.888 511.796,-337.954 511.796,-337.954 511.796,-341.987 507.763,-346.02 503.73,-346.02"/>
<text text-anchor="middle" x="468.502" y="-330.771" font-family="Arial" font-size="14.00" fill="#c6c5fe">figure&#45;list.js</text>
</g>
<!-- figure&#45;details.js&#45;&gt;figure&#45;list.js -->
<g id="edge31" class="edge"><title>figure&#45;details.js&#45;&gt;figure&#45;list.js</title>
<path fill="none" stroke="#757575" d="M270.317,-437.861C284.701,-418.274 315.929,-379.748 351.951,-359.921 371.225,-349.313 394.572,-343.031 415.221,-339.311"/>
<polygon fill="#757575" stroke="#757575" points="415.812,-342.761 425.111,-337.683 414.675,-335.854 415.812,-342.761"/>
</g>
<!-- figure&#45;list.js&#45;&gt;header.js -->
<g id="edge37" class="edge"><title>figure&#45;list.js&#45;&gt;header.js</title>
<path fill="none" stroke="#757575" d="M485.382,-346.009C529.369,-379.493 653.003,-473.607 705.522,-513.586"/>
<polygon fill="#757575" stroke="#757575" points="703.53,-516.468 713.606,-519.74 707.77,-510.898 703.53,-516.468"/>
</g>
<!-- figure&#45;list.js&#45;&gt;nav.js -->
<g id="edge38" class="edge"><title>figure&#45;list.js&#45;&gt;nav.js</title>
<path fill="none" stroke="#757575" d="M479.646,-346.131C501.783,-373.339 554.857,-441.697 585.054,-506.921 609.522,-559.773 578.115,-593.573 621.054,-632.921 640.322,-650.578 669.799,-655.394 693.177,-656.033"/>
<polygon fill="#757575" stroke="#757575" points="693.419,-659.534 703.43,-656.064 693.44,-652.534 693.419,-659.534"/>
</g>
<!-- figure&#45;list.js&#45;&gt;request.js -->
<g id="edge39" class="edge"><title>figure&#45;list.js&#45;&gt;request.js</title>
<path fill="none" stroke="#757575" d="M511.825,-326.76C584.116,-316.725 733.864,-305.67 840.163,-363.921 918.339,-406.762 969.523,-506.548 989.045,-550.493"/>
<polygon fill="#757575" stroke="#757575" points="985.844,-551.907 993.029,-559.692 992.267,-549.125 985.844,-551.907"/>
</g>
<!-- figure&#45;list.js&#45;&gt;credentials.js -->
<g id="edge36" class="edge"><title>figure&#45;list.js&#45;&gt;credentials.js</title>
<path fill="none" stroke="#757575" d="M510.802,-321.829C580.938,-303.47 726.746,-274.809 840.163,-315.921 1012.49,-378.388 1150.11,-569.381 1192.23,-633.033"/>
<polygon fill="#757575" stroke="#757575" points="1189.55,-635.336 1197.95,-641.794 1195.41,-631.508 1189.55,-635.336"/>
</g>
<!-- figure&#45;list.js&#45;&gt;components/pie.js -->
<g id="edge35" class="edge"><title>figure&#45;list.js&#45;&gt;components/pie.js</title>
<path fill="none" stroke="#757575" d="M511.871,-321.846C533.776,-315.504 560.911,-307.495 585.054,-299.921 601.146,-294.874 604.838,-292.557 621.054,-287.921 635.209,-283.875 650.523,-279.941 665.061,-276.408"/>
<polygon fill="#757575" stroke="#757575" points="666.069,-279.766 674.978,-274.03 664.437,-272.959 666.069,-279.766"/>
</g>
<!-- forgot&#45;password.js -->
<g id="node20" class="node"><title>forgot&#45;password.js</title>
<path fill="none" stroke="#c6c5fe" d="M525.816,-582.02C525.816,-582.02 411.189,-582.02 411.189,-582.02 407.156,-582.02 403.123,-577.987 403.123,-573.954 403.123,-573.954 403.123,-565.888 403.123,-565.888 403.123,-561.856 407.156,-557.823 411.189,-557.823 411.189,-557.823 525.816,-557.823 525.816,-557.823 529.849,-557.823 533.882,-561.856 533.882,-565.888 533.882,-565.888 533.882,-573.954 533.882,-573.954 533.882,-577.987 529.849,-582.02 525.816,-582.02"/>
<text text-anchor="middle" x="468.502" y="-566.771" font-family="Arial" font-size="14.00" fill="#c6c5fe">forgot&#45;password.js</text>
</g>
<!-- forgot&#45;password.js&#45;&gt;header.js -->
<g id="edge40" class="edge"><title>forgot&#45;password.js&#45;&gt;header.js</title>
<path fill="none" stroke="#757575" d="M533.798,-560.528C580.397,-553.72 642.28,-544.68 683.898,-538.599"/>
<polygon fill="#757575" stroke="#757575" points="684.632,-542.029 694.021,-537.121 683.62,-535.103 684.632,-542.029"/>
</g>
<!-- forgot&#45;password.js&#45;&gt;nav.js -->
<g id="edge41" class="edge"><title>forgot&#45;password.js&#45;&gt;nav.js</title>
<path fill="none" stroke="#757575" d="M533.973,-573.751C551.394,-576.839 569.668,-582.092 585.054,-590.921 606.378,-603.158 599.799,-620.564 621.054,-632.921 642.972,-645.665 671.171,-650.849 693.334,-652.881"/>
<polygon fill="#757575" stroke="#757575" points="693.129,-656.376 703.361,-653.627 693.648,-649.395 693.129,-656.376"/>
</g>
<!-- forgot&#45;password.js&#45;&gt;request.js -->
<g id="edge42" class="edge"><title>forgot&#45;password.js&#45;&gt;request.js</title>
<path fill="none" stroke="#757575" d="M533.992,-565.535C551.322,-562.436 569.543,-557.317 585.054,-548.921 605.514,-537.848 599.682,-520.114 621.054,-510.921 710.511,-472.443 744.433,-493.06 840.163,-510.921 885.426,-519.366 934.426,-540.347 965.609,-555.341"/>
<polygon fill="#757575" stroke="#757575" points="964.17,-558.533 974.691,-559.781 967.245,-552.244 964.17,-558.533"/>
</g>
<!-- initialize.js -->
<g id="node21" class="node"><title>initialize.js</title>
<path fill="none" stroke="#c6c5fe" d="M71.6341,-604.02C71.6341,-604.02 8.16574,-604.02 8.16574,-604.02 4.13279,-604.02 0.0998472,-599.987 0.0998472,-595.954 0.0998472,-595.954 0.0998472,-587.888 0.0998472,-587.888 0.0998472,-583.856 4.13279,-579.823 8.16574,-579.823 8.16574,-579.823 71.6341,-579.823 71.6341,-579.823 75.667,-579.823 79.7,-583.856 79.7,-587.888 79.7,-587.888 79.7,-595.954 79.7,-595.954 79.7,-599.987 75.667,-604.02 71.6341,-604.02"/>
<text text-anchor="middle" x="39.8999" y="-588.771" font-family="Arial" font-size="14.00" fill="#c6c5fe">initialize.js</text>
</g>
<!-- sbg.js -->
<g id="node22" class="node"><title>sbg.js</title>
<path fill="none" stroke="#c6c5fe" d="M161.734,-604.02C161.734,-604.02 123.866,-604.02 123.866,-604.02 119.833,-604.02 115.8,-599.987 115.8,-595.954 115.8,-595.954 115.8,-587.888 115.8,-587.888 115.8,-583.856 119.833,-579.823 123.866,-579.823 123.866,-579.823 161.734,-579.823 161.734,-579.823 165.767,-579.823 169.8,-583.856 169.8,-587.888 169.8,-587.888 169.8,-595.954 169.8,-595.954 169.8,-599.987 165.767,-604.02 161.734,-604.02"/>
<text text-anchor="middle" x="142.8" y="-588.771" font-family="Arial" font-size="14.00" fill="#c6c5fe">sbg.js</text>
</g>
<!-- initialize.js&#45;&gt;sbg.js -->
<g id="edge43" class="edge"><title>initialize.js&#45;&gt;sbg.js</title>
<path fill="none" stroke="#757575" d="M79.9104,-591.921C88.3327,-591.921 97.2041,-591.921 105.517,-591.921"/>
<polygon fill="#757575" stroke="#757575" points="105.672,-595.422 115.672,-591.921 105.672,-588.422 105.672,-595.422"/>
</g>
<!-- sbg.js&#45;&gt;about.js -->
<g id="edge58" class="edge"><title>sbg.js&#45;&gt;about.js</title>
<path fill="none" stroke="#757575" d="M152.062,-579.831C162.961,-564.573 183.4,-538.235 205.8,-520.921 210.587,-517.221 215.96,-513.819 221.413,-510.767"/>
<polygon fill="#757575" stroke="#757575" points="223.339,-513.709 230.576,-505.971 220.094,-507.507 223.339,-513.709"/>
</g>
<!-- sbg.js&#45;&gt;account.js -->
<g id="edge59" class="edge"><title>sbg.js&#45;&gt;account.js</title>
<path fill="none" stroke="#757575" d="M144.904,-604.26C148.452,-638.231 162.018,-734.913 205.8,-799.921 252.28,-868.935 277.866,-879.044 351.951,-916.921 372.831,-927.597 397.712,-935.073 419.028,-940.099"/>
<polygon fill="#757575" stroke="#757575" points="418.334,-943.531 428.858,-942.306 419.867,-936.701 418.334,-943.531"/>
</g>
<!-- sbg.js&#45;&gt;credentials.js -->
<g id="edge63" class="edge"><title>sbg.js&#45;&gt;credentials.js</title>
<path fill="none" stroke="#757575" d="M144.714,-604.005C151.628,-686.033 202.899,-1157.92 467.502,-1157.92 467.502,-1157.92 467.502,-1157.92 731.608,-1157.92 822.053,-1157.92 1072.32,-1106.57 1121.72,-1053.92 1174.02,-998.185 1197.68,-752.968 1203.86,-676.665"/>
<polygon fill="#757575" stroke="#757575" points="1207.38,-676.541 1204.68,-666.298 1200.41,-675.992 1207.38,-676.541"/>
</g>
<!-- sbg.js&#45;&gt;admin&#45;components/faction&#45;edit.js -->
<g id="edge60" class="edge"><title>sbg.js&#45;&gt;admin&#45;components/faction&#45;edit.js</title>
<path fill="none" stroke="#757575" d="M170.055,-601.925C180.984,-605.797 193.881,-609.992 205.8,-612.921 253.752,-624.706 307.516,-633.818 353.783,-640.426"/>
<polygon fill="#757575" stroke="#757575" points="353.451,-643.914 363.841,-641.84 354.426,-636.982 353.451,-643.914"/>
</g>
<!-- sbg.js&#45;&gt;admin&#45;components/figure&#45;edit.js -->
<g id="edge61" class="edge"><title>sbg.js&#45;&gt;admin&#45;components/figure&#45;edit.js</title>
<path fill="none" stroke="#757575" d="M148.787,-604.114C157.774,-624.991 178.338,-668.115 205.8,-696.921 259.424,-753.172 279.793,-764.061 351.951,-792.921 357.728,-795.232 363.77,-797.29 369.931,-799.123"/>
<polygon fill="#757575" stroke="#757575" points="369.119,-802.53 379.69,-801.822 370.985,-795.783 369.119,-802.53"/>
</g>
<!-- sbg.js&#45;&gt;admin&#45;components/scenario&#45;edit.js -->
<g id="edge62" class="edge"><title>sbg.js&#45;&gt;admin&#45;components/scenario&#45;edit.js</title>
<path fill="none" stroke="#757575" d="M169.948,-584.741C180.972,-581.827 193.969,-578.538 205.8,-575.921 264.892,-562.855 332.044,-550.591 383.53,-541.73"/>
<polygon fill="#757575" stroke="#757575" points="384.345,-545.141 393.611,-540.004 383.164,-538.242 384.345,-545.141"/>
</g>
<!-- sbg.js&#45;&gt;figure&#45;details.js -->
<g id="edge64" class="edge"><title>sbg.js&#45;&gt;figure&#45;details.js</title>
<path fill="none" stroke="#757575" d="M147.109,-579.762C154.123,-556.123 172.619,-503.605 205.8,-472.921 208.086,-470.808 210.595,-468.871 213.242,-467.1"/>
<polygon fill="#757575" stroke="#757575" points="215.163,-470.031 222.059,-461.988 211.652,-463.975 215.163,-470.031"/>
</g>
<!-- sbg.js&#45;&gt;figure&#45;list.js -->
<g id="edge65" class="edge"><title>sbg.js&#45;&gt;figure&#45;list.js</title>
<path fill="none" stroke="#757575" d="M145.305,-579.656C149.531,-550.096 164.059,-474.035 205.8,-428.921 260.766,-369.514 355.791,-347.178 414.955,-338.834"/>
<polygon fill="#757575" stroke="#757575" points="415.753,-342.259 425.207,-337.477 414.835,-335.319 415.753,-342.259"/>
</g>
<!-- sbg.js&#45;&gt;forgot&#45;password.js -->
<g id="edge66" class="edge"><title>sbg.js&#45;&gt;forgot&#45;password.js</title>
<path fill="none" stroke="#757575" d="M170.016,-590.14C218.002,-586.878 321.577,-579.839 392.904,-574.991"/>
<polygon fill="#757575" stroke="#757575" points="393.444,-578.463 403.184,-574.293 392.969,-571.479 393.444,-578.463"/>
</g>
<!-- login.js -->
<g id="node23" class="node"><title>login.js</title>
<path fill="none" stroke="#c6c5fe" d="M490.017,-868.02C490.017,-868.02 446.988,-868.02 446.988,-868.02 442.955,-868.02 438.922,-863.987 438.922,-859.954 438.922,-859.954 438.922,-851.888 438.922,-851.888 438.922,-847.856 442.955,-843.823 446.988,-843.823 446.988,-843.823 490.017,-843.823 490.017,-843.823 494.05,-843.823 498.083,-847.856 498.083,-851.888 498.083,-851.888 498.083,-859.954 498.083,-859.954 498.083,-863.987 494.05,-868.02 490.017,-868.02"/>
<text text-anchor="middle" x="468.502" y="-852.771" font-family="Arial" font-size="14.00" fill="#c6c5fe">login.js</text>
</g>
<!-- sbg.js&#45;&gt;login.js -->
<g id="edge67" class="edge"><title>sbg.js&#45;&gt;login.js</title>
<path fill="none" stroke="#757575" d="M145.702,-604.105C150.73,-632.785 166.766,-705.552 205.8,-750.921 254.663,-807.715 281.591,-809.181 351.951,-834.921 376.693,-843.973 405.896,-849.237 428.754,-852.231"/>
<polygon fill="#757575" stroke="#757575" points="428.42,-855.716 438.77,-853.453 429.268,-848.768 428.42,-855.716"/>
</g>
<!-- page&#45;404.js -->
<g id="node24" class="node"><title>page&#45;404.js</title>
<path fill="none" stroke="#c6c5fe" d="M505.102,-624.02C505.102,-624.02 431.903,-624.02 431.903,-624.02 427.87,-624.02 423.837,-619.987 423.837,-615.954 423.837,-615.954 423.837,-607.888 423.837,-607.888 423.837,-603.856 427.87,-599.823 431.903,-599.823 431.903,-599.823 505.102,-599.823 505.102,-599.823 509.135,-599.823 513.168,-603.856 513.168,-607.888 513.168,-607.888 513.168,-615.954 513.168,-615.954 513.168,-619.987 509.135,-624.02 505.102,-624.02"/>
<text text-anchor="middle" x="468.502" y="-608.771" font-family="Arial" font-size="14.00" fill="#c6c5fe">page&#45;404.js</text>
</g>
<!-- sbg.js&#45;&gt;page&#45;404.js -->
<g id="edge68" class="edge"><title>sbg.js&#45;&gt;page&#45;404.js</title>
<path fill="none" stroke="#757575" d="M170.016,-593.541C222.951,-596.812 343.534,-604.262 413.849,-608.606"/>
<polygon fill="#757575" stroke="#757575" points="413.648,-612.101 423.844,-609.224 414.079,-605.114 413.648,-612.101"/>
</g>
<!-- register.js -->
<g id="node25" class="node"><title>register.js</title>
<path fill="none" stroke="#c6c5fe" d="M498.347,-784.02C498.347,-784.02 438.658,-784.02 438.658,-784.02 434.625,-784.02 430.592,-779.987 430.592,-775.954 430.592,-775.954 430.592,-767.888 430.592,-767.888 430.592,-763.856 434.625,-759.823 438.658,-759.823 438.658,-759.823 498.347,-759.823 498.347,-759.823 502.38,-759.823 506.413,-763.856 506.413,-767.888 506.413,-767.888 506.413,-775.954 506.413,-775.954 506.413,-779.987 502.38,-784.02 498.347,-784.02"/>
<text text-anchor="middle" x="468.502" y="-768.771" font-family="Arial" font-size="14.00" fill="#c6c5fe">register.js</text>
</g>
<!-- sbg.js&#45;&gt;register.js -->
<g id="edge69" class="edge"><title>sbg.js&#45;&gt;register.js</title>
<path fill="none" stroke="#757575" d="M157.374,-604.075C189.123,-631.896 271.64,-700.744 351.951,-738.921 373.585,-749.206 399.057,-756.903 420.572,-762.265"/>
<polygon fill="#757575" stroke="#757575" points="419.925,-765.709 430.466,-764.638 421.558,-758.902 419.925,-765.709"/>
</g>
<!-- scenario&#45;details.js -->
<g id="node26" class="node"><title>scenario&#45;details.js</title>
<path fill="none" stroke="#c6c5fe" d="M524.484,-174.02C524.484,-174.02 412.52,-174.02 412.52,-174.02 408.488,-174.02 404.455,-169.987 404.455,-165.954 404.455,-165.954 404.455,-157.888 404.455,-157.888 404.455,-153.856 408.488,-149.823 412.52,-149.823 412.52,-149.823 524.484,-149.823 524.484,-149.823 528.517,-149.823 532.55,-153.856 532.55,-157.888 532.55,-157.888 532.55,-165.954 532.55,-165.954 532.55,-169.987 528.517,-174.02 524.484,-174.02"/>
<text text-anchor="middle" x="468.502" y="-158.771" font-family="Arial" font-size="14.00" fill="#c6c5fe">scenario&#45;details.js</text>
</g>
<!-- sbg.js&#45;&gt;scenario&#45;details.js -->
<g id="edge70" class="edge"><title>sbg.js&#45;&gt;scenario&#45;details.js</title>
<path fill="none" stroke="#757575" d="M144.706,-579.595C148.769,-527.319 166.843,-324.406 205.8,-275.921 252.478,-217.826 334.62,-188.647 394.454,-174.458"/>
<polygon fill="#757575" stroke="#757575" points="395.26,-177.864 404.23,-172.225 393.702,-171.04 395.26,-177.864"/>
</g>
<!-- scenario&#45;list.js -->
<g id="node27" class="node"><title>scenario&#45;list.js</title>
<path fill="none" stroke="#c6c5fe" d="M512.626,-250.02C512.626,-250.02 424.378,-250.02 424.378,-250.02 420.345,-250.02 416.313,-245.987 416.313,-241.954 416.313,-241.954 416.313,-233.888 416.313,-233.888 416.313,-229.856 420.345,-225.823 424.378,-225.823 424.378,-225.823 512.626,-225.823 512.626,-225.823 516.659,-225.823 520.692,-229.856 520.692,-233.888 520.692,-233.888 520.692,-241.954 520.692,-241.954 520.692,-245.987 516.659,-250.02 512.626,-250.02"/>
<text text-anchor="middle" x="468.502" y="-234.771" font-family="Arial" font-size="14.00" fill="#c6c5fe">scenario&#45;list.js</text>
</g>
<!-- sbg.js&#45;&gt;scenario&#45;list.js -->
<g id="edge71" class="edge"><title>sbg.js&#45;&gt;scenario&#45;list.js</title>
<path fill="none" stroke="#757575" d="M144.043,-579.734C145.357,-542.834 153.667,-430.476 205.8,-358.921 253.406,-293.58 345.108,-262.525 406.318,-248.501"/>
<polygon fill="#757575" stroke="#757575" points="407.231,-251.884 416.244,-246.314 405.725,-245.048 407.231,-251.884"/>
</g>
<!-- login.js&#45;&gt;header.js -->
<g id="edge45" class="edge"><title>login.js&#45;&gt;header.js</title>
<path fill="none" stroke="#757575" d="M498.247,-859.265C524.624,-860.599 562.869,-857.857 585.054,-834.921 661.265,-756.13 558.282,-680.788 621.054,-590.921 636.208,-569.226 661.968,-554.739 684.592,-545.551"/>
<polygon fill="#757575" stroke="#757575" points="685.966,-548.773 694.056,-541.932 683.466,-542.235 685.966,-548.773"/>
</g>
<!-- login.js&#45;&gt;nav.js -->
<g id="edge46" class="edge"><title>login.js&#45;&gt;nav.js</title>
<path fill="none" stroke="#757575" d="M498.116,-857.763C523.494,-857.892 560.277,-854.21 585.054,-834.921 615.5,-811.219 598.57,-787.279 621.054,-755.921 645.048,-722.458 681.189,-691.162 705.085,-672.283"/>
<polygon fill="#757575" stroke="#757575" points="707.24,-675.041 712.987,-666.14 702.944,-669.515 707.24,-675.041"/>
</g>
<!-- login.js&#45;&gt;request.js -->
<g id="edge47" class="edge"><title>login.js&#45;&gt;request.js</title>
<path fill="none" stroke="#757575" d="M498.211,-851.418C576.907,-838.49 793.316,-798.835 840.163,-746.921 887.253,-694.738 825.019,-641.139 876.163,-592.921 895.714,-574.489 925.283,-569.066 950.388,-568.334"/>
<polygon fill="#757575" stroke="#757575" points="950.492,-571.834 960.472,-568.278 950.453,-564.834 950.492,-571.834"/>
</g>
<!-- login.js&#45;&gt;credentials.js -->
<g id="edge44" class="edge"><title>login.js&#45;&gt;credentials.js</title>
<path fill="none" stroke="#757575" d="M498.105,-857.689C593.488,-862.284 906.78,-866.803 1121.72,-745.921 1152.54,-728.588 1178.22,-695.828 1192.74,-674.442"/>
<polygon fill="#757575" stroke="#757575" points="1195.69,-676.329 1198.26,-666.052 1189.84,-672.482 1195.69,-676.329"/>
</g>
<!-- page&#45;404.js&#45;&gt;header.js -->
<g id="edge51" class="edge"><title>page&#45;404.js&#45;&gt;header.js</title>
<path fill="none" stroke="#757575" d="M513.301,-609.746C535.71,-607.228 562.865,-601.939 585.054,-590.921 604.494,-581.269 601.887,-568.108 621.054,-557.921 640.524,-547.573 664.13,-541.288 684.35,-537.498"/>
<polygon fill="#757575" stroke="#757575" points="685.014,-540.935 694.272,-535.783 683.822,-534.037 685.014,-540.935"/>
</g>
<!-- page&#45;404.js&#45;&gt;nav.js -->
<g id="edge52" class="edge"><title>page&#45;404.js&#45;&gt;nav.js</title>
<path fill="none" stroke="#757575" d="M513.332,-618.999C563.942,-627.171 646.259,-640.463 693.396,-648.074"/>
<polygon fill="#757575" stroke="#757575" points="693.029,-651.56 703.459,-649.699 694.145,-644.65 693.029,-651.56"/>
</g>
<!-- register.js&#45;&gt;header.js -->
<g id="edge54" class="edge"><title>register.js&#45;&gt;header.js</title>
<path fill="none" stroke="#757575" d="M489.112,-759.703C514.267,-743.174 557.885,-711.513 585.054,-674.921 609.267,-642.31 593.698,-620.946 621.054,-590.921 638.42,-571.861 663.413,-557.692 685.041,-548.023"/>
<polygon fill="#757575" stroke="#757575" points="686.569,-551.176 694.386,-544.025 683.815,-544.74 686.569,-551.176"/>
</g>
<!-- register.js&#45;&gt;nav.js -->
<g id="edge55" class="edge"><title>register.js&#45;&gt;nav.js</title>
<path fill="none" stroke="#757575" d="M506.617,-771.289C531.054,-769.142 562.566,-762.889 585.054,-745.921 611.726,-725.796 594.52,-700.229 621.054,-679.921 641.739,-664.09 670.629,-657.715 693.405,-655.231"/>
<polygon fill="#757575" stroke="#757575" points="693.738,-658.716 703.389,-654.344 693.118,-651.743 693.738,-658.716"/>
</g>
<!-- register.js&#45;&gt;request.js -->
<g id="edge56" class="edge"><title>register.js&#45;&gt;request.js</title>
<path fill="none" stroke="#757575" d="M506.479,-763.863C529.565,-758.225 559.626,-749.766 585.054,-738.921 602.092,-731.655 603.724,-724.463 621.054,-717.921 713.899,-682.876 762.714,-736.971 840.163,-674.921 871.226,-650.035 844.816,-617.448 876.163,-592.921 897.009,-576.611 926.047,-571.144 950.539,-569.857"/>
<polygon fill="#757575" stroke="#757575" points="950.833,-573.35 960.72,-569.542 950.616,-566.353 950.833,-573.35"/>
</g>
<!-- register.js&#45;&gt;credentials.js -->
<g id="edge53" class="edge"><title>register.js&#45;&gt;credentials.js</title>
<path fill="none" stroke="#757575" d="M506.654,-766.095C606.291,-750.447 887.751,-706.107 1121.72,-667.921 1130.1,-666.554 1138.94,-665.095 1147.62,-663.654"/>
<polygon fill="#757575" stroke="#757575" points="1148.4,-667.072 1157.69,-661.978 1147.25,-660.167 1148.4,-667.072"/>
</g>
<!-- scenario&#45;details.js&#45;&gt;header.js -->
<g id="edge75" class="edge"><title>scenario&#45;details.js&#45;&gt;header.js</title>
<path fill="none" stroke="#757575" d="M511.743,-174.032C535.746,-182.708 564.93,-196.514 585.054,-216.921 596.356,-228.383 689.788,-440.829 720.131,-510.206"/>
<polygon fill="#757575" stroke="#757575" points="717.074,-511.951 724.285,-519.713 723.488,-509.148 717.074,-511.951"/>
</g>
<!-- scenario&#45;details.js&#45;&gt;nav.js -->
<g id="edge76" class="edge"><title>scenario&#45;details.js&#45;&gt;nav.js</title>
<path fill="none" stroke="#757575" d="M521.604,-174.067C544.829,-182.238 570.238,-195.562 585.054,-216.921 637.939,-293.165 558.967,-563.964 621.054,-632.921 638.843,-652.68 669.159,-657.205 693.239,-657.197"/>
<polygon fill="#757575" stroke="#757575" points="693.554,-660.69 703.459,-656.931 693.372,-653.693 693.554,-660.69"/>
</g>
<!-- scenario&#45;details.js&#45;&gt;request.js -->
<g id="edge77" class="edge"><title>scenario&#45;details.js&#45;&gt;request.js</title>
<path fill="none" stroke="#757575" d="M486.566,-149.664C542.92,-110.803 725.992,2.31172 840.163,-80.9214 919.954,-139.091 979.376,-461.51 994.296,-549.649"/>
<polygon fill="#757575" stroke="#757575" points="990.864,-550.347 995.965,-559.633 997.769,-549.193 990.864,-550.347"/>
</g>
<!-- scenario&#45;details.js&#45;&gt;credentials.js -->
<g id="edge74" class="edge"><title>scenario&#45;details.js&#45;&gt;credentials.js</title>
<path fill="none" stroke="#757575" d="M480.139,-149.822C502.953,-124.904 559.537,-68.4756 621.054,-47.9214 839.208,24.9688 981.604,3.48384 1121.72,-178.921 1177.56,-251.618 1199.22,-547.388 1204.32,-631.506"/>
<polygon fill="#757575" stroke="#757575" points="1200.84,-631.945 1204.92,-641.722 1207.83,-631.534 1200.84,-631.945"/>
</g>
<!-- scenario&#45;details.js&#45;&gt;components/pie.js -->
<g id="edge72" class="edge"><title>scenario&#45;details.js&#45;&gt;components/pie.js</title>
<path fill="none" stroke="#757575" d="M500.877,-173.984C547.844,-192.04 636.463,-226.111 688.531,-246.129"/>
<polygon fill="#757575" stroke="#757575" points="687.532,-249.495 698.122,-249.816 690.044,-242.961 687.532,-249.495"/>
</g>
<!-- scenario&#45;details.js&#45;&gt;components/star&#45;rating.js -->
<g id="edge73" class="edge"><title>scenario&#45;details.js&#45;&gt;components/star&#45;rating.js</title>
<path fill="none" stroke="#757575" d="M513.431,-149.863C543.594,-141.77 584.61,-131.128 621.054,-122.921 631.592,-120.548 642.743,-118.204 653.727,-115.99"/>
<polygon fill="#757575" stroke="#757575" points="654.621,-119.381 663.746,-113.997 653.255,-112.516 654.621,-119.381"/>
</g>
<!-- scenario&#45;updater.js -->
<g id="node28" class="node"><title>scenario&#45;updater.js</title>
<path fill="none" stroke="#c6c5fe" d="M789.832,-156.02C789.832,-156.02 671.385,-156.02 671.385,-156.02 667.352,-156.02 663.319,-151.987 663.319,-147.954 663.319,-147.954 663.319,-139.888 663.319,-139.888 663.319,-135.856 667.352,-131.823 671.385,-131.823 671.385,-131.823 789.832,-131.823 789.832,-131.823 793.865,-131.823 797.898,-135.856 797.898,-139.888 797.898,-139.888 797.898,-147.954 797.898,-147.954 797.898,-151.987 793.865,-156.02 789.832,-156.02"/>
<text text-anchor="middle" x="730.608" y="-140.771" font-family="Arial" font-size="14.00" fill="#c6c5fe">scenario&#45;updater.js</text>
</g>
<!-- scenario&#45;details.js&#45;&gt;scenario&#45;updater.js -->
<g id="edge78" class="edge"><title>scenario&#45;details.js&#45;&gt;scenario&#45;updater.js</title>
<path fill="none" stroke="#757575" d="M532.799,-157.541C569.103,-155.029 614.93,-151.857 653.226,-149.207"/>
<polygon fill="#757575" stroke="#757575" points="653.566,-152.692 663.3,-148.51 653.083,-145.709 653.566,-152.692"/>
</g>
<!-- scenario&#45;list.js&#45;&gt;header.js -->
<g id="edge82" class="edge"><title>scenario&#45;list.js&#45;&gt;header.js</title>
<path fill="none" stroke="#757575" d="M494.139,-250.036C519.065,-263.128 557.722,-285.799 585.054,-312.921 647.789,-375.176 698.458,-468.846 719.319,-510.564"/>
<polygon fill="#757575" stroke="#757575" points="716.3,-512.356 723.862,-519.777 722.578,-509.26 716.3,-512.356"/>
</g>
<!-- scenario&#45;list.js&#45;&gt;nav.js -->
<g id="edge83" class="edge"><title>scenario&#45;list.js&#45;&gt;nav.js</title>
<path fill="none" stroke="#757575" d="M502.56,-250.035C529.521,-261.764 566.131,-282.303 585.054,-312.921 622.674,-373.794 572.493,-580.361 621.054,-632.921 639.096,-652.449 669.391,-656.994 693.399,-657.052"/>
<polygon fill="#757575" stroke="#757575" points="693.668,-660.547 703.584,-656.817 693.506,-653.549 693.668,-660.547"/>
</g>
<!-- scenario&#45;list.js&#45;&gt;request.js -->
<g id="edge84" class="edge"><title>scenario&#45;list.js&#45;&gt;request.js</title>
<path fill="none" stroke="#757575" d="M508.157,-225.869C579.964,-205.968 736.079,-174.641 840.163,-240.921 952.133,-312.223 986.377,-486.978 995.228,-549.346"/>
<polygon fill="#757575" stroke="#757575" points="991.808,-550.183 996.598,-559.634 998.747,-549.259 991.808,-550.183"/>
</g>
<!-- scenario&#45;list.js&#45;&gt;credentials.js -->
<g id="edge81" class="edge"><title>scenario&#45;list.js&#45;&gt;credentials.js</title>
<path fill="none" stroke="#757575" d="M504.811,-225.825C535.201,-216.089 580.44,-203.191 621.054,-197.921 849.263,-168.312 974.739,-152.855 1121.72,-329.921 1197.91,-421.711 1205.83,-574.669 1205.97,-631.641"/>
<polygon fill="#757575" stroke="#757575" points="1202.47,-631.69 1205.92,-641.709 1209.47,-631.729 1202.47,-631.69"/>
</g>
<!-- scenario&#45;list.js&#45;&gt;components/pie.js -->
<g id="edge79" class="edge"><title>scenario&#45;list.js&#45;&gt;components/pie.js</title>
<path fill="none" stroke="#757575" d="M520.891,-242.663C559.406,-246.217 612.665,-251.131 655.742,-255.106"/>
<polygon fill="#757575" stroke="#757575" points="655.614,-258.609 665.893,-256.042 656.257,-251.638 655.614,-258.609"/>
</g>
<!-- scenario&#45;list.js&#45;&gt;components/star&#45;rating.js -->
<g id="edge80" class="edge"><title>scenario&#45;list.js&#45;&gt;components/star&#45;rating.js</title>
<path fill="none" stroke="#757575" d="M508.745,-225.79C532.845,-216.857 563.179,-202.787 585.054,-182.921 608.075,-162.014 595.577,-140.755 621.054,-122.921 625.27,-119.97 629.794,-117.406 634.515,-115.182"/>
<polygon fill="#757575" stroke="#757575" points="635.924,-118.386 643.807,-111.309 633.23,-111.925 635.924,-118.386"/>
</g>
<!-- scenario&#45;list.js&#45;&gt;scenario&#45;updater.js -->
<g id="edge85" class="edge"><title>scenario&#45;list.js&#45;&gt;scenario&#45;updater.js</title>
<path fill="none" stroke="#757575" d="M492.836,-225.8C522.134,-210.971 574.24,-185.874 621.054,-169.921 633.625,-165.638 647.245,-161.784 660.451,-158.438"/>
<polygon fill="#757575" stroke="#757575" points="661.571,-161.766 670.445,-155.979 659.898,-154.969 661.571,-161.766"/>
</g>
<!-- scenario&#45;updater.js&#45;&gt;request.js -->
<g id="edge86" class="edge"><title>scenario&#45;updater.js&#45;&gt;request.js</title>
<path fill="none" stroke="#757575" d="M763.291,-156.175C787.124,-166.772 819.161,-184.146 840.163,-207.921 935.032,-315.317 979.911,-488.566 993.394,-549.698"/>
<polygon fill="#757575" stroke="#757575" points="990.034,-550.723 995.552,-559.767 996.879,-549.256 990.034,-550.723"/>
</g>
</g>
</svg>
