<?xml version="1.0"?>
<svg viewBox="0 0 640 640" xmlns="http://www.w3.org/2000/svg" xmlns:svg="http://www.w3.org/2000/svg">
 <!-- Created with SVG-edit - https://github.com/SVG-Edit/svgedit-->

 <g class="layer">
  <title>Layer 1</title>
  <rect fill="#000000" height="566" id="svg_64" stroke="#000000" stroke-dasharray="null" stroke-linecap="null" stroke-linejoin="null" stroke-opacity="null" stroke-width="2" width="385" x="186.5" y="13"/>
  <text fill="#000000" fill-opacity="0" font-family="Serif" font-size="24" id="svg_14" stroke="#000000" stroke-dasharray="null" stroke-linecap="null" stroke-linejoin="null" stroke-width="0" text-anchor="middle" x="109.5" xml:space="preserve" y="120">23</text>
  <rect fill="#ffffff" height="566" id="svg_66" stroke="#000000" stroke-dasharray="null" stroke-linecap="null" stroke-linejoin="null" stroke-width="2" width="385" x="175" y="23.5"/>
  <rect fill="#ffffff" height="566" id="svg_69" stroke="#000000" stroke-dasharray="null" stroke-linecap="null" stroke-linejoin="null" stroke-width="2" width="385" x="166" y="32.5"/>
  <rect fill="#ffffff" height="566" id="svg_70" stroke="#000000" stroke-dasharray="null" stroke-linecap="null" stroke-linejoin="null" stroke-width="2" width="385" x="157" y="41.5"/>
  <rect fill="#ffffff" height="566" id="svg_3" stroke="#000000" stroke-dasharray="null" stroke-linecap="null" stroke-linejoin="null" stroke-width="2" width="385" x="145" y="50"/>
  <rect fill="#ffffff" height="566" id="svg_4" stroke="#000000" stroke-dasharray="null" stroke-linecap="null" stroke-linejoin="null" stroke-width="2" transform="matrix(1, 0, 0, 1, 0, 0)" width="385" x="134" y="59"/>
  <rect fill="#000000" height="566" id="svg_65" stroke="#000000" stroke-dasharray="null" stroke-linecap="null" stroke-linejoin="null" stroke-opacity="null" stroke-width="2" width="385" x="120" y="66.5"/>
  <ellipse cx="312.5" cy="350.5" fill="#cccccc" id="svg_73" rx="187" ry="181.5" stroke="#000000" stroke-dasharray="null" stroke-linecap="null" stroke-linejoin="null" stroke-opacity="null" stroke-width="2"/>
  <path d="m124.5,65c0,0 56.42,-51 56.42,-51c0,0 13.76,2.62 13.07,2.62c-0.69,0 -55.73,45.77 -55.73,47.08c0,1.31 -13.76,1.31 -13.76,1.31l0,-0.01z" fill="#000000" fill-opacity="null" id="svg_71" stroke="#000000" stroke-dasharray="null" stroke-linecap="null" stroke-linejoin="null" stroke-opacity="null" stroke-width="2"/>
  <path d="m314,350.82l0,-180.82a185.13,180.82 0 0 1 97.38,334.5l-97.38,-153.68z" fill="rgb(0, 170, 0)" id="svg_1" stroke="black" stroke-width="1px"/>
  <path d="m312.34,346.01l98.92,158.15a188.04,186.06 0 0 1 -267.21,-75.17l168.29,-82.99l0,0.02z" fill="rgb(187, 187, 0)" id="svg_2" stroke="black" stroke-width="1px" transform="matrix(1, 0, 0, 1, 0, 0)"/>
 </g>
</svg>